<svg width="16" height="16" viewBox="0 0 16 16" fill="none" xmlns="http://www.w3.org/2000/svg">
<path fill-rule="evenodd" clip-rule="evenodd" d="M7.25 14C7.25 14.4142 7.58579 14.75 8 14.75C8.41421 14.75 8.75 14.4142 8.75 14V8.74988H14C14.4142 8.74988 14.75 8.41409 14.75 7.99988C14.75 7.58566 14.4142 7.24988 14 7.24988H8.75V2C8.75 1.58579 8.41421 1.25 8 1.25C7.58579 1.25 7.25 1.58579 7.25 2V7.24988H2C1.58579 7.24988 1.25 7.58566 1.25 7.99988C1.25 8.41409 1.58579 8.74988 2 8.74988H7.25V14Z" fill="#222222"/>
</svg>
