<svg width="16" height="16" viewBox="0 0 16 16" fill="none" xmlns="http://www.w3.org/2000/svg">
<path fill-rule="evenodd" clip-rule="evenodd" d="M4.16156 5.93336C4.41401 6.70738 5.14168 7.26669 5.99998 7.26669C6.85829 7.26669 7.58596 6.70738 7.83841 5.93336C9.67004 5.93336 11.5017 5.93336 13.3333 5.93336C13.6647 5.93336 13.9333 5.66473 13.9333 5.33336C13.9333 5.00199 13.6647 4.73336 13.3333 4.73336C11.5017 4.73336 9.67004 4.73336 7.83841 4.73336C7.83193 4.71312 7.8406 4.74009 7.83841 4.73336C7.58596 3.95933 6.85829 3.40002 5.99998 3.40002C5.14168 3.40002 4.41401 3.95933 4.16156 4.73336C3.66326 4.73336 3.16495 4.73336 2.66665 4.73336C2.33528 4.73336 2.06665 5.00199 2.06665 5.33336C2.06665 5.66473 2.33528 5.93336 2.66665 5.93336C3.16495 5.93336 3.66326 5.93336 4.16156 5.93336ZM5.99998 4.60002C5.59498 4.60002 5.26665 4.92835 5.26665 5.33336C5.26665 5.73837 5.59498 6.06669 5.99998 6.06669C6.40499 6.06669 6.73332 5.73837 6.73332 5.33336C6.73332 4.92835 6.40499 4.60002 5.99998 4.60002Z" fill="#222222"/>
<path fill-rule="evenodd" clip-rule="evenodd" d="M2.06665 10.6667C2.06665 10.3353 2.33528 10.0667 2.66665 10.0667C4.49829 10.0667 6.32993 10.0667 8.16156 10.0667C8.41401 9.29266 9.14168 8.73336 9.99998 8.73336C10.8583 8.73336 11.586 9.29266 11.8384 10.0667C11.8384 10.0667 12.9857 10.0667 13.3333 10.0667C13.6647 10.0667 13.9333 10.3353 13.9333 10.6667C13.9333 10.9981 13.6647 11.2667 13.3333 11.2667C13.1852 11.2667 11.8384 11.2667 11.8384 11.2667C11.586 12.0407 10.8583 12.6 9.99998 12.6C9.14168 12.6 8.41401 12.0407 8.16156 11.2667C6.32993 11.2667 4.49829 11.2667 2.66665 11.2667C2.33528 11.2667 2.06665 10.9981 2.06665 10.6667ZM9.26665 10.6667C9.26665 10.2617 9.59498 9.93336 9.99998 9.93336C10.405 9.93336 10.7333 10.2617 10.7333 10.6667C10.7333 11.0717 10.405 11.4 9.99998 11.4C9.59498 11.4 9.26665 11.0717 9.26665 10.6667Z" fill="#222222"/>
</svg>
