<svg width="16" height="16" viewBox="0 0 16 16" fill="none" xmlns="http://www.w3.org/2000/svg">
<path d="M7.49259 4.19157L8.00005 4.65787L8.50751 4.19157L8.67298 4.03953C9.35789 3.43897 10.1018 3.15002 10.9031 3.15002C12.8591 3.15002 14.45 4.74306 14.45 6.71463C14.45 7.72741 14.2668 8.42335 13.6984 9.20624C13.0906 10.0435 12.0323 10.9946 10.1833 12.4389L8.50776 13.6868C8.20647 13.9111 7.79363 13.9111 7.49234 13.6868L5.81684 12.4389C3.96781 10.9946 2.9095 10.0435 2.30166 9.20624C1.7333 8.42335 1.55005 7.72741 1.55005 6.71463C1.55005 4.74306 3.14098 3.15002 5.09704 3.15002C5.8983 3.15002 6.64221 3.43897 7.32713 4.03953L7.49259 4.19157Z" stroke="#222222" stroke-width="1.5" stroke-linecap="round"/>
</svg>
