<svg width="16" height="16" viewBox="0 0 16 16" fill="none" xmlns="http://www.w3.org/2000/svg">
<g clip-path="url(#clip0_1010_6071)">
<path d="M9.94478 4.7902V4.25V4.19H10.0048H11.2707H11.3307V4.25V9.64809C11.3307 9.9705 11.4206 10.2525 11.5997 10.4963C11.7739 10.7335 12.0273 10.854 12.3694 10.854C12.7601 10.854 13.0517 10.7209 13.2534 10.4594L13.2538 10.4589C13.4631 10.1925 13.6103 9.77488 13.6894 9.19807L13.6894 9.19767C13.7725 8.62037 13.8142 7.87908 13.8142 6.97293C13.8142 6.44509 13.7413 5.92514 13.5956 5.41292L13.5954 5.4124C13.4537 4.89684 13.2373 4.41484 12.9461 3.96619L12.9459 3.96588C12.6591 3.51808 12.2956 3.12301 11.8549 2.78066C11.4152 2.43907 10.898 2.17142 10.3027 1.97825L10.3023 1.9781C9.71239 1.78147 9.04023 1.68261 8.28503 1.68261C7.35573 1.68261 6.52537 1.82694 5.79302 2.11437L5.79286 2.11443C5.0644 2.39794 4.44506 2.81296 3.93395 3.35945M9.94478 4.7902L9.5629 11.3081M9.94478 4.7902C9.86969 4.64306 9.74204 4.51056 9.56706 4.39166C9.56696 4.39159 9.56686 4.39152 9.56675 4.39145L9.94478 4.7902ZM3.93395 3.35945L3.89013 3.31847L3.93395 3.35945ZM3.93395 3.35945C3.4268 3.90198 3.03881 4.56317 2.77056 5.34422C2.50635 6.12109 2.37369 7.00608 2.37369 8C2.37369 9.00993 2.50638 9.90488 2.77058 10.6857C3.03869 11.4663 3.43237 12.1232 3.951 12.6576C4.4735 13.1918 5.12033 13.5972 5.89279 13.873L5.89305 13.8731C6.66545 14.1529 7.55798 14.2935 8.57166 14.2935C9.00571 14.2935 9.43376 14.2521 9.85588 14.1692C10.2803 14.0859 10.6545 13.9948 10.9785 13.896C11.3049 13.7965 11.5391 13.7231 11.6817 13.6756L11.7401 13.6561L11.758 13.715L12.0924 14.8137L12.1082 14.8656L12.0582 14.8865C11.8078 14.9916 11.4824 15.0959 11.0829 15.1998C10.6865 15.3039 10.2625 15.3898 9.81075 15.4578C9.36224 15.5259 8.93326 15.56 8.52388 15.56C7.30035 15.56 6.21646 15.3921 5.2732 15.0549C4.33004 14.7218 3.53588 14.2295 2.89202 13.5776C2.24826 12.9258 1.76209 12.1277 1.433 11.1846C1.10393 10.2415 0.94 9.16376 0.94 7.95223C0.94 6.78022 1.106 5.73018 1.43916 4.80296L1.43923 4.80274C1.77632 3.87575 2.26442 3.08791 2.90397 2.44032L2.90397 2.44032C3.54746 1.78879 4.32732 1.29256 5.24258 0.951344L5.24266 0.951314C6.16206 0.61005 7.20036 0.44 8.35669 0.44C9.48174 0.44 10.4695 0.624163 11.3184 0.994311C12.1694 1.3596 12.8812 1.85595 13.4527 2.48377C14.0271 3.10644 14.4572 3.80782 14.7426 4.58761C15.0317 5.36649 15.1762 6.16966 15.1762 6.99682C15.1762 7.57598 15.1483 8.16304 15.0924 8.758C15.0362 9.35555 14.9178 9.90595 14.7368 10.4089L14.7367 10.409C14.5542 10.9119 14.2716 11.3193 13.8882 11.6293C13.5042 11.9431 12.9878 12.0966 12.3455 12.0966C12.0607 12.0966 11.749 12.0519 11.4108 11.9633C11.0688 11.8737 10.7647 11.7249 10.4992 11.5166C10.2487 11.32 10.0925 11.0607 10.0307 10.7418C9.9322 10.9555 9.79043 11.158 9.60636 11.3495M9.60636 11.3495C9.60629 11.3496 9.60622 11.3496 9.60615 11.3497L9.5629 11.3081M9.60636 11.3495C9.60643 11.3494 9.60649 11.3493 9.60656 11.3493L9.5629 11.3081M9.60636 11.3495C9.4041 11.5641 9.13939 11.7337 8.81439 11.8596M9.5629 11.3081C9.36783 11.5151 9.11107 11.6803 8.79259 11.8037L8.81451 11.8596C8.81447 11.8596 8.81443 11.8596 8.81439 11.8596M8.81439 11.8596C8.49014 11.9869 8.09732 12.041 7.63802 12.0249L7.63782 12.0249C7.11265 12.0047 6.64768 11.8874 6.24437 11.6715L6.24396 11.6713C5.84198 11.452 5.50484 11.1555 5.23295 10.7821L5.23251 10.7815C4.96535 10.4051 4.76352 9.97069 4.62652 9.47908L4.62636 9.47853C4.49349 8.98326 4.42726 8.45052 4.42726 7.88057C4.42726 7.33719 4.50777 6.83862 4.66961 6.38547C4.83107 5.93339 5.05546 5.53686 5.34311 5.19654L5.34338 5.19622C5.63485 4.85617 5.97523 4.58461 6.3643 4.38195L8.81439 11.8596ZM6.75018 5.63587L6.75028 5.63579C7.06107 5.40558 7.43626 5.2893 7.87898 5.2893C8.35069 5.2893 8.74358 5.36403 9.05996 5.51065C9.37142 5.65498 9.60869 5.90597 9.77085 6.2689C9.93311 6.63205 10.0164 7.14388 10.0164 7.80892C10.0164 8.46571 9.94119 9.00584 9.79287 9.43128C9.64521 9.85482 9.41176 10.1675 9.09427 10.3741C8.77647 10.5808 8.35702 10.6868 7.83121 10.6868C7.32462 10.6868 6.92823 10.5526 6.63534 10.2902C6.33789 10.0198 6.12234 9.66735 5.98976 9.23064C5.85625 8.78688 5.7893 8.31308 5.7893 7.80892C5.7893 7.35462 5.87149 6.93686 6.03515 6.55489C6.20249 6.16965 6.44096 5.86392 6.75018 5.63587Z" fill="#358C6C" stroke="#358C6C" stroke-width="0.12"/>
</g>
<defs>
<clipPath id="clip0_1010_6071">
<rect width="16" height="16" fill="white"/>
</clipPath>
</defs>
</svg>
