<svg width="16" height="16" viewBox="0 0 16 16" fill="none" xmlns="http://www.w3.org/2000/svg">
<path fill-rule="evenodd" clip-rule="evenodd" d="M5.99992 2.89327H2.66659V6.2266H5.99992V2.89327ZM2.66659 1.55994C1.93021 1.55994 1.33325 2.15689 1.33325 2.89327V6.2266C1.33325 6.96298 1.93021 7.55994 2.66659 7.55994H5.99992C6.7363 7.55994 7.33325 6.96298 7.33325 6.2266V2.89327C7.33325 2.15689 6.7363 1.55994 5.99992 1.55994H2.66659Z" fill="#222222"/>
<path fill-rule="evenodd" clip-rule="evenodd" d="M5.99992 10.2265H2.66659V13.5599H5.99992V10.2265ZM2.66659 8.89319C1.93021 8.89319 1.33325 9.49014 1.33325 10.2265V13.5599C1.33325 14.2962 1.93021 14.8932 2.66659 14.8932H5.99992C6.7363 14.8932 7.33325 14.2962 7.33325 13.5599V10.2265C7.33325 9.49014 6.7363 8.89319 5.99992 8.89319H2.66659Z" fill="#222222"/>
<path fill-rule="evenodd" clip-rule="evenodd" d="M13.3332 2.89327H9.99984V6.2266H13.3332V2.89327ZM9.99984 1.55994C9.26346 1.55994 8.6665 2.15689 8.6665 2.89327V6.2266C8.6665 6.96298 9.26346 7.55994 9.99984 7.55994H13.3332C14.0696 7.55994 14.6665 6.96298 14.6665 6.2266V2.89327C14.6665 2.15689 14.0696 1.55994 13.3332 1.55994H9.99984Z" fill="#222222"/>
<path fill-rule="evenodd" clip-rule="evenodd" d="M12.3332 8.89319H10.9998V11.2265H8.6665V12.5599H10.9998V14.8932H12.3332V12.5599H14.6665V11.2265H12.3332V8.89319Z" fill="#222222"/>
</svg>
