<svg width="16" height="16" viewBox="0 0 16 16" fill="none" xmlns="http://www.w3.org/2000/svg">
<g clip-path="url(#clip0_67_414)">
<path d="M14.8649 13.5721L14.8466 13.5904L14.8296 13.61L14.2443 14.2838C13.1442 15.3185 11.6165 15.4937 9.84713 14.9483C8.05854 14.397 6.14466 13.1338 4.52129 11.5147C2.89806 9.89576 1.627 7.98244 1.06468 6.19152C0.50828 4.41943 0.671466 2.88907 1.68652 1.78737L2.42458 1.14557L2.43983 1.13232L2.45434 1.11826C2.70118 0.879088 3.03232 0.746803 3.376 0.750059C3.70776 0.753201 4.02542 0.882392 4.26497 1.11064L4.29111 1.14397C4.32597 1.18866 4.37524 1.25217 4.43448 1.32873C4.55279 1.48161 4.70886 1.68392 4.86459 1.88599L5.29142 2.44028L5.43163 2.62252L5.47086 2.67352L5.48119 2.68694L5.48383 2.69038L5.4845 2.69125L5.48466 2.69146L5.4847 2.69152L6.07925 2.23433L5.48472 2.69153L5.50884 2.7229L5.53613 2.75156C5.77026 2.9974 5.90066 3.32399 5.90027 3.66347C5.89987 4.00295 5.7687 4.32923 5.53401 4.57452L5.51085 4.59873L5.48994 4.62489L4.71534 5.59448L4.43967 5.93955L4.60772 6.34799C5.07325 7.47942 5.75777 8.5077 6.62195 9.37375C7.48613 10.2398 8.51294 10.9265 9.64336 11.3945L10.0515 11.5635L10.3972 11.2884L11.3748 10.5105L11.4018 10.489L11.4267 10.4652C11.6719 10.2302 11.9982 10.0988 12.3378 10.0983C12.6774 10.0977 13.0041 10.228 13.2501 10.4622L13.2785 10.4893L13.3097 10.5132L13.7672 9.91893L13.3097 10.5132L13.3098 10.5133L13.31 10.5134L13.3108 10.5141L13.3143 10.5168L13.3277 10.5271L13.3787 10.5664L13.561 10.7067L14.1154 11.1341C14.3175 11.29 14.5199 11.4462 14.673 11.5647C14.7496 11.6241 14.8132 11.6734 14.8581 11.7084L14.8907 11.734C15.1214 11.9785 15.2504 12.3023 15.2505 12.6394C15.2506 12.9891 15.1119 13.3245 14.8649 13.5721Z" stroke="#358C6C" stroke-width="1.5"/>
</g>
<defs>
<clipPath id="clip0_67_414">
<rect width="16" height="16" fill="white"/>
</clipPath>
</defs>
</svg>
