<svg width="16" height="16" viewBox="0 0 16 16" fill="none" xmlns="http://www.w3.org/2000/svg">
<path d="M9.83624 5.58531L10.0101 5.99558L10.4535 6.03911L13.7991 6.36752C14.1334 6.40033 14.2207 6.55482 14.2399 6.61748C14.2597 6.68238 14.2728 6.86736 14.0088 7.09186L11.3895 9.3191L11.0282 9.62639L11.1509 10.0846L12.1233 13.713C12.224 14.0886 12.0866 14.2115 12.0686 14.2245C12.0509 14.2373 12.018 14.2534 11.9556 14.2494C11.8906 14.2452 11.7756 14.2167 11.6234 14.1067L8.44085 11.8067L8.00154 11.4892L7.56223 11.8067L4.37968 14.1067C4.22898 14.2156 4.11462 14.244 4.04952 14.2482C3.98687 14.2522 3.95337 14.236 3.93503 14.2228C3.91652 14.2095 3.77946 14.0873 3.87978 13.713L4.85213 10.0846L4.97492 9.62639L4.61354 9.3191L1.9943 7.09186L1.50846 7.66322L1.9943 7.09186C1.72626 6.86393 1.74088 6.67852 1.75985 6.61638C1.77811 6.55659 1.86418 6.40086 2.20377 6.36752L5.54876 6.03911L5.99212 5.99558L6.166 5.58542L7.63971 2.10901C7.77956 1.77911 7.95464 1.74999 8.00148 1.75C8.04841 1.75001 8.2235 1.77932 8.36321 2.10901L9.83624 5.58531Z" stroke="#222222" stroke-width="1.5"/>
</svg>
