<svg width="16" height="16" viewBox="0 0 16 16" fill="none" xmlns="http://www.w3.org/2000/svg">
<path fill-rule="evenodd" clip-rule="evenodd" d="M9.92565 2.89286L6.07435 2.89286C5.95282 2.89286 5.83628 2.94113 5.75035 3.02706L3.02706 5.75035C2.94113 5.83628 2.89286 5.95282 2.89286 6.07435L2.89286 9.92565C2.89286 10.0472 2.94113 10.1637 3.02706 10.2497L5.75035 12.9729C5.83628 13.0589 5.95282 13.1071 6.07435 13.1071L9.92565 13.1071C10.0472 13.1071 10.1637 13.0589 10.2497 12.9729L12.9729 10.2497C13.0589 10.1637 13.1071 10.0472 13.1071 9.92565L13.1071 6.07435C13.1071 5.95282 13.0589 5.83628 12.9729 5.75035L10.2497 3.02706C10.1637 2.94113 10.0472 2.89286 9.92565 2.89286ZM6.07435 1.5C5.58342 1.5 5.11259 1.69502 4.76545 2.04216L2.04217 4.76545C1.69502 5.11259 1.5 5.58342 1.5 6.07435V9.92565C1.5 10.4166 1.69502 10.8874 2.04216 11.2346L4.76545 13.9578C5.11259 14.305 5.58342 14.5 6.07435 14.5L9.92565 14.5C10.4166 14.5 10.8874 14.305 11.2346 13.9578L13.9578 11.2346C14.305 10.8874 14.5 10.4166 14.5 9.92565L14.5 6.07435C14.5 5.58342 14.305 5.11259 13.9578 4.76545L11.2346 2.04217C10.8874 1.69502 10.4166 1.5 9.92565 1.5H6.07435Z" fill="#222222"/>
<path fill-rule="evenodd" clip-rule="evenodd" d="M8 4.28571C8.38463 4.28571 8.69643 4.59752 8.69643 4.98214V8.23214C8.69643 8.61677 8.38463 8.92857 8 8.92857C7.61537 8.92857 7.30357 8.61677 7.30357 8.23214V4.98214C7.30357 4.59752 7.61537 4.28571 8 4.28571Z" fill="#222222"/>
<path d="M8.83572 10.8786C8.83572 11.3401 8.46156 11.7143 8.00001 11.7143C7.53845 11.7143 7.16429 11.3401 7.16429 10.8786C7.16429 10.417 7.53845 10.0429 8.00001 10.0429C8.46156 10.0429 8.83572 10.417 8.83572 10.8786Z" fill="#222222"/>
</svg>
