<svg width="16" height="16" viewBox="0 0 16 16" fill="none" xmlns="http://www.w3.org/2000/svg">
<path d="M15.3331 12.3467V14.3333C15.3331 14.8856 14.8854 15.3333 14.3331 15.3333H12.3464L15.3331 12.3467Z" fill="#222222"/>
<path d="M14.9916 8.02147C15.1176 7.89548 15.333 7.98472 15.333 8.1629V10.2372C15.333 10.2903 15.3119 10.3411 15.2744 10.3786L10.3783 15.2748C10.3408 15.3123 10.2899 15.3334 10.2368 15.3334H8.16253C7.98435 15.3334 7.89512 15.118 8.02111 14.992L14.9916 8.02147Z" fill="#222222"/>
<path d="M14.9915 3.35473C15.1175 3.22873 15.3329 3.31797 15.3329 3.49615V5.57047C15.3329 5.62351 15.3119 5.67438 15.2744 5.71189L5.71152 15.2747C5.67401 15.3122 5.62314 15.3333 5.5701 15.3333H3.49578C3.3176 15.3333 3.22837 15.1179 3.35436 14.9919L14.9915 3.35473Z" fill="#222222"/>
</svg>
