<svg width="16" height="16" viewBox="0 0 16 16" fill="none" xmlns="http://www.w3.org/2000/svg">
<path d="M5.33219 7.89368C5.73145 7.89368 6.06072 7.58088 6.0812 7.18214L6.33272 2.28478C6.37278 1.96923 6.58945 1.70434 6.88995 1.6016C7.61008 1.35539 8.39352 1.35471 9.11421 1.60111C9.41805 1.705 9.63495 1.97419 9.67189 2.29268L9.87617 7.17503C9.89298 7.5767 10.2235 7.89368 10.6255 7.89368H12.1565H12.1567L12.196 7.89367H12.1961C12.4189 7.8936 12.6216 7.89413 12.7803 7.90832C12.932 7.9219 13.1736 7.95477 13.3714 8.1192C13.6073 8.3152 13.7373 8.61071 13.7222 8.9172C13.7095 9.1745 13.5699 9.37471 13.4771 9.49544C13.3802 9.62167 13.2433 9.77104 13.0924 9.93472L13.0924 9.93477L13.0658 9.96367L13.0656 9.9638L9.9002 13.4002L9.90014 13.4003C9.65435 13.6672 9.44639 13.8922 9.26233 14.061C9.06613 14.241 8.85742 14.3955 8.60049 14.4837C8.21313 14.6165 7.79247 14.6165 7.40511 14.4837C7.14817 14.3955 6.93947 14.241 6.74327 14.061C6.5592 13.8922 6.35124 13.6672 6.10545 13.4003L6.10539 13.4002L2.93995 9.9638L2.93983 9.96366L2.9132 9.93477L2.91315 9.93472C2.76228 9.77104 2.62542 9.62167 2.52846 9.49544C2.43573 9.37471 2.29609 9.1745 2.2834 8.9172C2.26827 8.61072 2.39834 8.3152 2.63416 8.1192C2.83199 7.95477 3.07357 7.9219 3.22533 7.90832C3.38397 7.89413 3.58668 7.8936 3.80953 7.89367H3.80961L3.84889 7.89368H3.84906H5.33219Z" stroke="#222222" stroke-width="1.5" stroke-linejoin="round"/>
</svg>
