<svg width="16" height="16" viewBox="0 0 16 16" fill="none" xmlns="http://www.w3.org/2000/svg">
<path d="M7.91353 1.80409C7.07771 1.86307 6.41797 2.55981 6.41797 3.41063L6.41722 4.99655L6.40192 5.00022C3.00673 5.70363 0.5 8.71217 0.5 12.2617C0.5 12.5196 0.51319 12.7766 0.539278 13.0315C0.601472 13.6391 1.37503 13.8575 1.74578 13.372L1.88572 13.1949C2.97891 11.8567 4.53533 10.9788 6.25729 10.7488L6.41722 10.7295L6.41797 12.598C6.41797 12.958 6.53872 13.3079 6.76093 13.5914C7.30965 14.2915 8.322 14.4142 9.02209 13.8654L14.8829 9.27185C14.9849 9.19186 15.077 9.09983 15.157 8.99777C15.7057 8.29768 15.583 7.28533 14.8829 6.73661L9.02209 2.14301C8.73858 1.9208 8.38877 1.80005 8.02855 1.80005L7.91353 1.80409ZM8.02855 3.14845C8.08719 3.14845 8.14414 3.1681 8.19029 3.20428L14.0511 7.79787C14.1651 7.8872 14.185 8.052 14.0957 8.16597C14.0827 8.18258 14.0677 8.19756 14.0511 8.21059L8.19029 12.8042C8.07632 12.8935 7.91152 12.8735 7.82219 12.7596C7.78602 12.7134 7.76636 12.6565 7.76636 12.5978L7.76561 10.0154C7.7655 9.63878 7.45689 9.33529 7.08033 9.34148L6.90568 9.34435L6.64932 9.35673C4.94578 9.46546 3.35568 10.0962 2.06586 11.129L1.93529 11.2366L1.95312 11.1352C2.43466 8.57669 4.52626 6.56166 7.17319 6.23886C7.5114 6.19762 7.76568 5.91052 7.76577 5.56981L7.76636 3.41082C7.76636 3.26583 7.88375 3.14845 8.02855 3.14845Z" fill="#222222"/>
</svg>
