<svg width="16" height="16" viewBox="0 0 16 16" fill="none" xmlns="http://www.w3.org/2000/svg">
<path d="M4.90325 5.41617C5.0865 5.51735 5.30369 5.53735 5.50233 5.47132C5.70098 5.40529 5.86299 5.25925 5.9492 5.0685L7.00943 2.72276C7.39475 1.87024 8.60542 1.87025 8.99074 2.72277L10.051 5.0685C10.1372 5.25925 10.2992 5.40529 10.4978 5.47132C10.6965 5.53735 10.9137 5.51735 11.0969 5.41617L12.9674 4.3834C13.8091 3.91867 14.7954 4.69502 14.5414 5.62232C14.5392 5.63016 14.5372 5.63803 14.5353 5.64593L13.3758 10.4922C13.3613 10.5525 13.3544 10.6145 13.3552 10.6765L13.3739 12.0996V12.1183V12.5334C13.3739 12.9191 13.3733 13.1633 13.3582 13.348C13.3438 13.524 13.3201 13.5789 13.3103 13.5982C13.2544 13.708 13.1651 13.7972 13.0554 13.8531C13.0361 13.8629 12.9812 13.8867 12.8052 13.901C12.6205 13.9161 12.3763 13.9167 11.9906 13.9167H11.5755H11.5519H4.44826H4.0127C3.62947 13.9167 3.38701 13.9161 3.20355 13.9012C3.02889 13.887 2.97418 13.8635 2.95487 13.8537C2.84551 13.7983 2.75639 13.7098 2.70017 13.6009C2.69024 13.5816 2.66638 13.5271 2.65087 13.3525C2.63458 13.1692 2.63222 12.9268 2.6294 12.5435L2.62626 12.1156L2.62626 12.0996L2.64491 10.6765C2.64573 10.6145 2.63883 10.5525 2.62439 10.4922L1.46484 5.64593C1.46295 5.63802 1.46093 5.63015 1.45878 5.62232C1.20478 4.69502 2.19111 3.91867 3.03279 4.3834L4.90325 5.41617Z" stroke="#222222" stroke-width="1.5" stroke-linecap="round" stroke-linejoin="round"/>
<line x1="2.66675" y1="10.6667" x2="13.3334" y2="10.6667" stroke="#222222" stroke-width="1.33333"/>
</svg>
