<svg width="111" height="32" viewBox="0 0 111 32" fill="none" xmlns="http://www.w3.org/2000/svg">
<path d="M111 28.7924C111 30.5646 109.571 32.0001 107.804 32.0001H3.20056C1.43396 32.0001 0 30.5646 0 28.7924V3.21195C0 1.4406 1.43396 6.10352e-05 3.20056 6.10352e-05H107.803C109.571 6.10352e-05 110.999 1.4406 110.999 3.21195L111 28.7924Z" fill="black"/>
<path d="M24.1948 15.8268C24.1707 13.2484 26.3842 11.994 26.4854 11.9356C25.2318 10.1732 23.2888 9.9324 22.6061 9.9132C20.9742 9.7476 19.3912 10.8548 18.56 10.8548C17.7121 10.8548 16.432 9.9292 15.0523 9.9564C13.2769 9.9828 11.616 10.974 10.705 12.5132C8.82508 15.6516 10.2272 20.2636 12.0283 22.8004C12.9293 24.0428 13.9821 25.43 15.3601 25.3812C16.7082 25.3276 17.2118 24.5524 18.8387 24.5524C20.4507 24.5524 20.9236 25.3812 22.329 25.35C23.7758 25.3276 24.6868 24.102 25.5562 22.8484C26.5974 21.4244 27.0155 20.022 27.0321 19.95C26.9981 19.9388 24.2222 18.9172 24.1948 15.8268Z" fill="white"/>
<path d="M21.54 8.24441C22.2651 7.37001 22.7612 6.18041 22.6235 4.97321C21.574 5.01801 20.2615 5.67321 19.5057 6.52841C18.837 7.28201 18.2397 8.5172 18.394 9.6788C19.5729 9.7636 20.7834 9.10521 21.54 8.24441Z" fill="white"/>
<path d="M43.7044 19.8028H41.8203L40.7883 16.6756H37.201L36.2179 19.8028H34.3835L37.9377 9.15643H40.1329L43.7044 19.8028ZM40.4772 15.3636L39.5438 12.5836C39.4451 12.2996 39.2601 11.6308 38.9872 10.578H38.954C38.8453 11.0308 38.6702 11.6996 38.4296 12.5836L37.5129 15.3636H40.4772Z" fill="white"/>
<path d="M52.8443 15.8696C52.8443 17.1752 52.4785 18.2072 51.7467 18.9648C51.0913 19.6392 50.2775 19.976 49.306 19.976C48.2573 19.976 47.504 19.6128 47.0452 18.8864H47.012V22.9304H45.2433V14.6528C45.2433 13.832 45.2209 12.9896 45.1777 12.1256H46.7333L46.832 13.3424H46.8652C47.4551 12.4256 48.3502 11.968 49.5515 11.968C50.4907 11.968 51.2747 12.3256 51.9019 13.0416C52.5307 13.7584 52.8443 14.7008 52.8443 15.8696ZM51.0424 15.932C51.0424 15.1848 50.8682 14.5688 50.5181 14.084C50.1356 13.5784 49.6221 13.3256 48.9783 13.3256C48.5419 13.3256 48.1453 13.4664 47.7911 13.744C47.436 14.024 47.2037 14.3896 47.095 14.8424C47.0403 15.0536 47.0129 15.2264 47.0129 15.3624V16.6424C47.0129 17.2008 47.1904 17.672 47.5455 18.0568C47.9006 18.4416 48.3619 18.6336 48.9293 18.6336C49.5955 18.6336 50.114 18.3856 50.4849 17.8912C50.8565 17.396 51.0424 16.7432 51.0424 15.932Z" fill="white"/>
<path d="M62.0015 15.8696C62.0015 17.1752 61.6356 18.2072 60.903 18.9648C60.2485 19.6392 59.4346 19.976 58.4631 19.976C57.4144 19.976 56.6611 19.6128 56.2032 18.8864H56.17V22.9304H54.4012V14.6528C54.4012 13.832 54.3788 12.9896 54.3357 12.1256H55.8912L55.99 13.3424H56.0232C56.6122 12.4256 57.5074 11.968 58.7095 11.968C59.6478 11.968 60.4318 12.3256 61.0607 13.0416C61.687 13.7584 62.0015 14.7008 62.0015 15.8696ZM60.1995 15.932C60.1995 15.1848 60.0245 14.5688 59.6744 14.084C59.2919 13.5784 58.78 13.3256 58.1354 13.3256C57.6982 13.3256 57.3025 13.4664 56.9474 13.744C56.5923 14.024 56.3608 14.3896 56.2521 14.8424C56.1982 15.0536 56.17 15.2264 56.17 15.3624V16.6424C56.17 17.2008 56.3475 17.672 56.701 18.0568C57.056 18.4408 57.5173 18.6336 58.0865 18.6336C58.7526 18.6336 59.2712 18.3856 59.642 17.8912C60.0137 17.396 60.1995 16.7432 60.1995 15.932Z" fill="white"/>
<path d="M72.2386 16.8168C72.2386 17.7224 71.9125 18.4592 71.258 19.028C70.5387 19.6496 69.5373 19.96 68.2506 19.96C67.0625 19.96 66.1101 19.7392 65.3892 19.2968L65.799 17.8752C66.5755 18.328 67.4276 18.5552 68.3559 18.5552C69.0221 18.5552 69.5406 18.4096 69.9131 18.12C70.284 17.8304 70.469 17.4416 70.469 16.9568C70.469 16.5248 70.3163 16.1608 70.0102 15.8656C69.7057 15.5704 69.1972 15.296 68.487 15.0424C66.554 14.3472 65.5883 13.3288 65.5883 11.9896C65.5883 11.1144 65.9268 10.3968 66.6046 9.8384C67.2799 9.2792 68.1809 9 69.3075 9C70.3122 9 71.1468 9.1688 71.813 9.5056L71.3708 10.896C70.7486 10.5696 70.045 10.4064 69.2577 10.4064C68.6355 10.4064 68.1493 10.5544 67.8009 10.8488C67.5064 11.112 67.3587 11.4328 67.3587 11.8128C67.3587 12.2336 67.5271 12.5816 67.8656 12.8552C68.1601 13.108 68.6952 13.3816 69.4718 13.6768C70.4217 14.0456 71.1194 14.4768 71.5682 14.9712C72.0154 15.464 72.2386 16.0808 72.2386 16.8168Z" fill="white"/>
<path d="M78.0876 13.4052H76.138V17.1324C76.138 18.0804 76.4814 18.554 77.17 18.554C77.4861 18.554 77.7483 18.5276 77.9557 18.4748L78.0046 19.77C77.6562 19.8956 77.1974 19.9588 76.6291 19.9588C75.9306 19.9588 75.3847 19.7532 74.9906 19.3428C74.5982 18.9316 74.4007 18.242 74.4007 17.2732V13.4036H73.2393V12.1236H74.4007V10.718L76.138 10.2124V12.1236H78.0876V13.4052Z" fill="white"/>
<path d="M86.8831 15.9008C86.8831 17.0807 86.533 18.0495 85.8345 18.8071C85.1019 19.5871 84.1296 19.9759 82.9175 19.9759C81.7494 19.9759 80.8194 19.6023 80.1258 18.8551C79.4322 18.1079 79.0854 17.1647 79.0854 16.0279C79.0854 14.8383 79.4422 13.864 80.1582 13.1064C80.8725 12.348 81.8365 11.9688 83.0486 11.9688C84.2167 11.9688 85.1567 12.3424 85.866 13.0904C86.5446 13.816 86.8831 14.7528 86.8831 15.9008ZM85.048 15.9559C85.048 15.2479 84.8912 14.6408 84.5734 14.1344C84.2026 13.5216 83.6725 13.2159 82.9855 13.2159C82.2745 13.2159 81.7345 13.5224 81.3636 14.1344C81.0459 14.6416 80.8891 15.2583 80.8891 15.9879C80.8891 16.6959 81.0459 17.3031 81.3636 17.8087C81.7461 18.4215 82.2804 18.7271 82.9698 18.7271C83.6451 18.7271 84.1752 18.4151 84.5577 17.7927C84.8837 17.2768 85.048 16.6631 85.048 15.9559Z" fill="white"/>
<path d="M92.6331 13.6256C92.4581 13.5944 92.2714 13.5784 92.0756 13.5784C91.4534 13.5784 90.9722 13.8048 90.6337 14.2584C90.3392 14.6584 90.1915 15.164 90.1915 15.7744V19.8024H88.4236L88.4402 14.5432C88.4402 13.6584 88.4177 12.8528 88.3738 12.1264H89.9144L89.9791 13.5952H90.0281C90.2147 13.0904 90.5093 12.684 90.9125 12.3792C91.3065 12.1048 91.7321 11.968 92.1909 11.968C92.3544 11.968 92.502 11.9792 92.6331 11.9992V13.6256Z" fill="white"/>
<path d="M100.543 15.6008C100.543 15.9064 100.523 16.164 100.479 16.3744H95.1723C95.1931 17.1328 95.4494 17.7128 95.9422 18.1128C96.3894 18.4704 96.9676 18.6496 97.6778 18.6496C98.4635 18.6496 99.1803 18.5288 99.8249 18.2864L100.102 19.4704C99.3487 19.7872 98.4593 19.9448 97.4331 19.9448C96.1986 19.9448 95.2296 19.5944 94.5244 18.8944C93.8209 18.1944 93.4683 17.2544 93.4683 16.0752C93.4683 14.9176 93.796 13.9536 94.4522 13.1848C95.1391 12.364 96.0675 11.9536 97.2356 11.9536C98.383 11.9536 99.2516 12.364 99.8415 13.1848C100.309 13.8368 100.543 14.6432 100.543 15.6008ZM98.8567 15.1584C98.8683 14.6528 98.753 14.216 98.5132 13.8472C98.2071 13.3728 97.7367 13.136 97.1037 13.136C96.5254 13.136 96.055 13.3672 95.6958 13.8312C95.4013 14.2 95.2262 14.6424 95.1723 15.1576H98.8567V15.1584Z" fill="white"/>
</svg>
