<svg width="92" height="92" viewBox="0 0 92 92" fill="none" xmlns="http://www.w3.org/2000/svg">
<rect width="92" height="92" rx="46" fill="#E6E6E6"/>
<path d="M55.4999 34.9998C55.4999 40.2465 51.2466 44.4997 46 44.4997C40.7533 44.4997 36.5 40.2465 36.5 34.9998C36.5 29.7532 40.7533 25.5 46 25.5C51.2466 25.5 55.4999 29.7532 55.4999 34.9998Z" stroke="#7A7A7A" stroke-width="3"/>
<path d="M40.6087 49.7002H51.388C57.3031 49.7002 62.0983 54.4953 62.0983 60.4104C62.0983 62.7329 60.3689 64.692 58.0643 64.98L57.7138 65.0238C49.9338 65.9963 42.0629 65.9963 34.2829 65.0238L33.9324 64.98C31.6278 64.692 29.8984 62.7329 29.8984 60.4104C29.8984 54.4953 34.6936 49.7002 40.6087 49.7002Z" stroke="#7A7A7A" stroke-width="3"/>
</svg>
