<svg width="112" height="32" viewBox="0 0 112 32" fill="none" xmlns="http://www.w3.org/2000/svg">
<path d="M107.852 32H4.14815C1.8677 32 0 30.199 0 28V4.00001C0 1.80101 1.8677 8.77743e-06 4.14815 8.77743e-06H107.852C110.132 8.77743e-06 112 1.80101 112 4.00001V28C112 30.199 110.132 32 107.852 32Z" fill="black"/>
<path d="M56.5274 12.9524C54.5788 12.9524 52.9869 14.3824 52.9869 16.3554C52.9869 18.3124 54.5788 19.7574 56.5274 19.7574C58.4801 19.7574 60.072 18.3124 60.072 16.3554C60.072 14.3824 58.4801 12.9524 56.5274 12.9524ZM56.5274 18.4174C55.4582 18.4174 54.5384 17.5664 54.5384 16.3554C54.5384 15.1284 55.4582 14.2924 56.5274 14.2924C57.5966 14.2924 58.5206 15.1284 58.5206 16.3554C58.5206 17.5664 57.5966 18.4174 56.5274 18.4174ZM48.8025 12.9524C46.8498 12.9524 45.2621 14.3824 45.2621 16.3554C45.2621 18.3124 46.8498 19.7574 48.8025 19.7574C50.7542 19.7574 52.3429 18.3124 52.3429 16.3554C52.3429 14.3824 50.7542 12.9524 48.8025 12.9524ZM48.8025 18.4174C47.7323 18.4174 46.8093 17.5664 46.8093 16.3554C46.8093 15.1284 47.7323 14.2924 48.8025 14.2924C49.8717 14.2924 50.7915 15.1284 50.7915 16.3554C50.7915 17.5664 49.8717 18.4174 48.8025 18.4174ZM39.6102 13.9954V15.4414H43.1911C43.0864 16.2494 42.8064 16.8434 42.377 17.2574C41.8544 17.7574 41.0403 18.3124 39.6102 18.3124C37.4065 18.3124 35.6809 16.5974 35.6809 14.4724C35.6809 12.3474 37.4065 10.6324 39.6102 10.6324C40.8018 10.6324 41.6687 11.0814 42.3086 11.6634L43.3653 10.6444C42.4704 9.82039 41.2798 9.18739 39.6102 9.18739C36.5883 9.18739 34.0486 11.5584 34.0486 14.4724C34.0486 17.3864 36.5883 19.7574 39.6102 19.7574C41.2435 19.7574 42.4704 19.2414 43.4348 18.2734C44.4231 17.3204 44.7311 15.9804 44.7311 14.8984C44.7311 14.5624 44.7021 14.2534 44.6502 13.9954H39.6102ZM77.1986 15.1164C76.9072 14.3554 76.0081 12.9524 74.1767 12.9524C72.3619 12.9524 70.8509 14.3314 70.8509 16.3554C70.8509 18.2614 72.3463 19.7574 74.3509 19.7574C75.9718 19.7574 76.9072 18.8044 77.292 18.2494L76.089 17.4764C75.6877 18.0424 75.1412 18.4174 74.3509 18.4174C73.5659 18.4174 73.0028 18.0704 72.6419 17.3864L77.3615 15.5034L77.1986 15.1164ZM72.3868 16.2494C72.3464 14.9374 73.4435 14.2654 74.2296 14.2654C74.8456 14.2654 75.3683 14.5624 75.5425 14.9874L72.3868 16.2494ZM68.5508 19.5504H70.1022V9.55039H68.5508V19.5504ZM66.0101 13.7104H65.9582C65.6098 13.3124 64.945 12.9524 64.1029 12.9524C62.3358 12.9524 60.7201 14.4484 60.7201 16.3664C60.7201 18.2734 62.3358 19.7574 64.1029 19.7574C64.945 19.7574 65.6098 19.3944 65.9582 18.9844H66.0101V19.4724C66.0101 20.7734 65.2893 21.4724 64.1268 21.4724C63.1789 21.4724 62.5909 20.8124 62.3483 20.2574L60.9991 20.8004C61.388 21.7024 62.4178 22.8124 64.1268 22.8124C65.9458 22.8124 67.4806 21.7804 67.4806 19.2694V13.1594H66.0101V13.7104ZM64.2357 18.4174C63.1665 18.4174 62.2715 17.5544 62.2715 16.3664C62.2715 15.1674 63.1665 14.2924 64.2357 14.2924C65.2893 14.2924 66.12 15.1674 66.12 16.3664C66.12 17.5544 65.2893 18.4174 64.2357 18.4174ZM84.462 9.55039H80.7515V19.5504H82.2988V15.7614H84.462C86.1804 15.7614 87.8656 14.5624 87.8656 12.6554C87.8656 10.7494 86.1763 9.55039 84.462 9.55039ZM84.5025 14.3704H82.2988V10.9414H84.5025C85.6578 10.9414 86.3173 11.8664 86.3173 12.6554C86.3173 13.4294 85.6578 14.3704 84.5025 14.3704ZM94.0671 12.9334C92.9492 12.9334 91.7866 13.4094 91.3086 14.4644L92.6816 15.0194C92.9772 14.4644 93.5206 14.2844 94.0951 14.2844C94.8978 14.2844 95.7118 14.7494 95.7243 15.5704V15.6754C95.4443 15.5194 94.8449 15.2884 94.1075 15.2884C92.6287 15.2884 91.1219 16.0734 91.1219 17.5384C91.1219 18.8784 92.3332 19.7414 93.6948 19.7414C94.736 19.7414 95.3105 19.2884 95.6714 18.7614H95.7243V19.5344H97.2186V15.6984C97.2186 13.9254 95.8456 12.9334 94.0671 12.9334ZM93.8804 18.4134C93.3743 18.4134 92.6692 18.1714 92.6692 17.5664C92.6692 16.7924 93.5486 16.4954 94.3098 16.4954C94.9911 16.4954 95.3105 16.6404 95.7243 16.8314C95.6029 17.7574 94.7764 18.4134 93.8804 18.4134ZM102.663 13.1524L100.885 17.4874H100.832L98.993 13.1524H97.3244L100.087 19.2104L98.5108 22.5814H100.128L104.385 13.1524H102.663ZM88.716 19.5504H90.2674V9.55039H88.716V19.5504Z" fill="white"/>
<path d="M8.65696 6.03091C8.41325 6.27691 8.27222 6.65991 8.27222 7.15591V24.8479C8.27222 25.3439 8.41325 25.7269 8.65696 25.9729L8.71711 26.0269L18.9983 16.1169V15.8829L8.71711 5.97291L8.65696 6.03091Z" fill="url(#paint0_linear_1664_35067)"/>
<path d="M22.4218 19.4214L18.9985 16.1164V15.8824L22.4259 12.5774L22.5027 12.6205L26.5616 14.8474C27.72 15.4794 27.72 16.5194 26.5616 17.1554L22.5027 19.3784L22.4218 19.4214Z" fill="url(#paint1_linear_1664_35067)"/>
<path d="M22.5029 19.379L18.9988 16L8.65747 25.973C9.04221 26.363 9.66962 26.41 10.3831 26.02L22.5029 19.379Z" fill="url(#paint2_linear_1664_35067)"/>
<path d="M22.5029 12.6207L10.3831 5.9797C9.66962 5.5937 9.04221 5.6407 8.65747 6.0307L18.9988 15.9997L22.5029 12.6207Z" fill="url(#paint3_linear_1664_35067)"/>
<defs>
<linearGradient id="paint0_linear_1664_35067" x1="18.0854" y1="25.0322" x2="4.6684" y2="11.1182" gradientUnits="userSpaceOnUse">
<stop stop-color="#00A0FF"/>
<stop offset="0.0066" stop-color="#00A1FF"/>
<stop offset="0.2601" stop-color="#00BEFF"/>
<stop offset="0.5122" stop-color="#00D2FF"/>
<stop offset="0.7604" stop-color="#00DFFF"/>
<stop offset="1" stop-color="#00E3FF"/>
</linearGradient>
<linearGradient id="paint1_linear_1664_35067" x1="28.07" y1="15.9983" x2="7.99557" y2="15.9983" gradientUnits="userSpaceOnUse">
<stop stop-color="#FFE000"/>
<stop offset="0.4087" stop-color="#FFBD00"/>
<stop offset="0.7754" stop-color="#FFA500"/>
<stop offset="1" stop-color="#FF9C00"/>
</linearGradient>
<linearGradient id="paint2_linear_1664_35067" x1="20.5975" y1="14.1632" x2="2.4029" y2="-4.70531" gradientUnits="userSpaceOnUse">
<stop stop-color="#FF3A44"/>
<stop offset="1" stop-color="#C31162"/>
</linearGradient>
<linearGradient id="paint3_linear_1664_35067" x1="6.05434" y1="31.8587" x2="14.179" y2="23.4332" gradientUnits="userSpaceOnUse">
<stop stop-color="#32A071"/>
<stop offset="0.0685" stop-color="#2DA771"/>
<stop offset="0.4762" stop-color="#15CF74"/>
<stop offset="0.8009" stop-color="#06E775"/>
<stop offset="1" stop-color="#00F076"/>
</linearGradient>
</defs>
</svg>
