<svg width="170" height="32" viewBox="0 0 170 32" fill="none" xmlns="http://www.w3.org/2000/svg">
<path d="M159.776 17.7883H149.142C149.613 19.5559 150.938 20.4397 153.12 20.4397C154.511 20.4397 155.564 19.9696 156.279 19.0294L159.212 20.7218C157.821 22.7339 155.771 23.7399 153.063 23.7399C150.731 23.7399 148.86 23.0348 147.45 21.6244C146.04 20.2141 145.334 18.437 145.334 16.2933C145.334 14.1872 146.03 12.4196 147.422 10.9904C148.795 9.56126 150.581 8.84668 152.781 8.84668C154.868 8.84668 156.57 9.56126 157.887 10.9904C159.24 12.4196 159.917 14.1872 159.917 16.2933C159.917 16.6882 159.87 17.1865 159.776 17.7883ZM149.086 14.9676H156.279C156.072 14.0462 155.649 13.341 155.009 12.8521C154.389 12.3631 153.646 12.1187 152.781 12.1187C151.803 12.1187 150.995 12.3725 150.355 12.8803C149.716 13.3692 149.293 14.065 149.086 14.9676Z" fill="#222222"/>
<path d="M125.852 9.24203V11.6678C126.172 10.784 126.717 10.1164 127.488 9.66513C128.259 9.19502 129.143 8.95996 130.14 8.95996V13.0218C129.03 12.8713 128.033 13.097 127.15 13.6987C126.285 14.2817 125.852 15.2501 125.852 16.604V23.3455H122.213V9.24203H125.852Z" fill="#222222"/>
<path d="M115.275 10.9058V9.24158H118.914V23.345H115.275V21.6808C114.185 23.0536 112.652 23.7399 110.678 23.7399C108.797 23.7399 107.18 23.0254 105.826 21.5962C104.491 20.1483 103.823 18.3806 103.823 16.2933C103.823 14.2248 104.491 12.4666 105.826 11.0186C107.18 9.57066 108.797 8.84668 110.678 8.84668C112.652 8.84668 114.185 9.53305 115.275 10.9058ZM108.562 19.1704C109.295 19.9038 110.226 20.2705 111.354 20.2705C112.483 20.2705 113.414 19.9038 114.147 19.1704C114.899 18.4182 115.275 17.4592 115.275 16.2933C115.275 15.1274 114.899 14.1778 114.147 13.4444C113.414 12.6922 112.483 12.3161 111.354 12.3161C110.226 12.3161 109.295 12.6922 108.562 13.4444C107.829 14.1778 107.462 15.1274 107.462 16.2933C107.462 17.4592 107.829 18.4182 108.562 19.1704Z" fill="#222222"/>
<path d="M96.135 8.84668C97.7522 8.84668 99.0404 9.37321 99.9994 10.4263C100.977 11.4793 101.466 12.8897 101.466 14.6573V23.345H97.8275V14.9112C97.8275 14.065 97.6206 13.4068 97.2069 12.9367C96.7932 12.4666 96.2103 12.2315 95.4581 12.2315C94.6307 12.2315 93.9819 12.5042 93.5118 13.0495C93.0605 13.5948 92.8348 14.3846 92.8348 15.4189V23.345H89.1961V14.9112C89.1961 14.065 88.9893 13.4068 88.5756 12.9367C88.1619 12.4666 87.5789 12.2315 86.8268 12.2315C86.0182 12.2315 85.3694 12.5136 84.8805 13.0777C84.4104 13.6231 84.1753 14.4034 84.1753 15.4189V23.345H80.5366V9.24158H84.1753V10.7365C85.0215 9.47663 86.3284 8.84668 88.0961 8.84668C89.8449 8.84668 91.1236 9.52365 91.9322 10.8776C92.8536 9.52365 94.2546 8.84668 96.135 8.84668Z" fill="#222222"/>
<path d="M71.7813 18.7197L74.9123 9.24219H78.8048L73.6711 23.3456C72.9378 25.3765 71.9599 26.8433 70.7376 27.7459C69.5341 28.6674 68.0298 29.0811 66.2245 28.987V25.6022C67.1836 25.621 67.9545 25.4142 68.5375 24.9817C69.1204 24.5491 69.5811 23.8534 69.9196 22.8943L64.1372 9.24219H68.1144L71.7813 18.7197Z" fill="#222222"/>
<path d="M57.5984 8.84668C59.2156 8.84668 60.5037 9.37321 61.4628 10.4263C62.4406 11.4793 62.9295 12.8897 62.9295 14.6573V23.345H59.2908V14.9112C59.2908 14.065 59.084 13.4068 58.6703 12.9367C58.2566 12.4666 57.6736 12.2315 56.9215 12.2315C56.0941 12.2315 55.4453 12.5042 54.9752 13.0495C54.5239 13.5948 54.2982 14.3846 54.2982 15.4189V23.345H50.6595V14.9112C50.6595 14.065 50.4527 13.4068 50.039 12.9367C49.6253 12.4666 49.0423 12.2315 48.2901 12.2315C47.4815 12.2315 46.8328 12.5136 46.3439 13.0777C45.8738 13.6231 45.6387 14.4034 45.6387 15.4189V23.345H42V9.24158H45.6387V10.7365C46.4849 9.47663 47.7918 8.84668 49.5595 8.84668C51.3083 8.84668 52.587 9.52365 53.3956 10.8776C54.317 9.52365 55.718 8.84668 57.5984 8.84668Z" fill="#222222"/>
<path d="M139.412 16.2093L145.569 23.3455H141.338L135.886 16.9427V23.3456H132.247V5H135.886V15.4477C136.653 14.8331 137.387 14.1787 138.049 13.4518C139.112 12.285 140.717 10.4029 141.36 9.02519H145.266C143.5 12 142 14.5 139.692 15.9872L139.412 16.2093Z" fill="#222222"/>
<path d="M169.436 12.7826V9.28491H165.481V5.33594L161.842 6.43601V12.7826V18.6496C161.842 20.6053 162.359 21.9592 163.394 22.7114C164.447 23.4448 166.973 23.6271 169.436 23.3451V20.0449C168.741 20.0825 167.39 20.1352 166.92 20.1164C166.449 20.0788 166.092 19.9471 165.848 19.7215C165.603 19.4958 165.481 19.1385 165.481 18.6496V12.7826H169.436Z" fill="#222222"/>
<path d="M28.5097 25.9802C25.5797 29.6502 21.0597 32.0002 15.9997 32.0002C11.3197 32.0002 7.10969 29.9902 4.17969 26.7902C4.87969 26.7602 5.40969 26.5402 5.75969 26.1502C6.13969 25.7102 6.47969 24.8702 6.76969 23.6302C7.10969 22.2002 7.56969 20.7502 8.13969 19.2702C8.69969 17.7902 9.28969 16.5702 9.89969 15.6202C10.5097 14.6702 11.0097 14.2002 11.4097 14.2002C11.6997 14.2002 11.8397 14.4102 11.8397 14.8302C11.8397 15.3602 11.7397 16.4702 11.5197 18.1602C11.2597 20.0602 11.1297 21.5202 11.1297 22.5202C11.1297 23.7102 11.3497 24.7202 11.7797 25.5502C12.2197 26.3802 12.8697 26.8002 13.7397 26.8002C14.6097 26.8002 15.1997 26.5902 15.5897 26.1702C15.9697 25.7402 16.3097 24.9002 16.5997 23.6302C16.9897 22.0202 17.5097 20.4902 18.1397 19.0302C18.7797 17.5802 19.4097 16.4102 20.0397 15.5202C20.6797 14.6402 21.1697 14.2002 21.5097 14.2002C21.7997 14.2002 21.9497 14.4102 21.9497 14.8302C21.9497 15.4602 21.7797 16.6102 21.4297 18.2802C21.0597 20.1802 20.8797 21.5002 20.8797 22.2402C20.8797 23.7202 21.2197 24.8502 21.9097 25.6302C22.5897 26.4102 23.6097 26.8002 24.9597 26.8002C26.3097 26.8002 27.4397 26.5302 28.5097 25.9802Z" fill="#358C6C"/>
<path d="M32 16C32 16.7 31.96 17.38 31.87 18.06C31.77 18.17 31.7 18.26 31.66 18.32C30.44 19.77 29.47 20.82 28.74 21.47C28.02 22.12 27.39 22.44 26.86 22.44C26.1 22.44 25.71 21.91 25.71 20.85C25.71 20.11 25.96 18.6 26.47 16.3C27.05 13.6 27.34 11.74 27.34 10.71C27.34 8.99 26.48 8.13 24.76 8.13C23.36 8.13 21.85 8.87 20.24 10.35C18.63 11.83 17.17 14.2 15.84 17.45C15.92 16.97 16.07 16.26 16.28 15.31C16.78 13.09 17.03 11.55 17.03 10.71C17.03 9.87 16.84 9.19 16.46 8.77C16.08 8.34 15.42 8.13 14.5 8.13C13.58 8.13 12.59 8.48 11.54 9.18C10.5 9.88 9.48 10.95 8.49 12.37C7.5 13.8 6.65 15.54 5.94 17.61C6.04 16.44 6.17 15.47 6.33 14.69C6.49 13.91 6.7 12.99 6.97 11.94C7.36 10.46 7.56 9.51 7.56 9.08C7.56 8.71 7.46 8.46 7.24 8.33C7.03 8.2 6.66 8.13 6.13 8.13C5.16 8.13 4.4 8.31 3.86 8.67C3.31 9.02 2.92 9.59 2.69 10.35C1.71 13.44 1.22 16.71 1.22 20.14C1.22 20.93 1.24 21.65 1.29 22.29C0.46 20.36 0 18.23 0 16C0 7.17 7.16 0 16 0C24.84 0 32 7.17 32 16Z" fill="#358C6C"/>
<path d="M31.8697 18.0599C31.4897 21.0299 30.2897 23.7499 28.5097 25.9799C27.4397 26.5299 26.2497 26.7999 24.9597 26.7999C23.6697 26.7999 22.5897 26.4099 21.9097 25.6299C21.2197 24.8499 20.8797 23.7199 20.8797 22.2399C20.8797 21.4999 21.0597 20.1799 21.4297 18.2799C21.7797 16.6099 21.9497 15.4599 21.9497 14.8299C21.9497 14.4099 21.7997 14.1999 21.5097 14.1999C21.1697 14.1999 20.6797 14.6399 20.0397 15.5199C19.4097 16.4099 18.7797 17.5799 18.1397 19.0299C17.5097 20.4899 16.9897 22.0199 16.5997 23.6299C16.3097 24.8999 15.9697 25.7399 15.5897 26.1699C15.1997 26.5899 14.5897 26.7999 13.7397 26.7999C12.8897 26.7999 12.2197 26.3799 11.7797 25.5499C11.3497 24.7199 11.1297 23.7099 11.1297 22.5199C11.1297 21.5199 11.2597 20.0599 11.5197 18.1599C11.7397 16.4699 11.8397 15.3599 11.8397 14.8299C11.8397 14.4099 11.6997 14.1999 11.4097 14.1999C11.0097 14.1999 10.5097 14.6699 9.89973 15.6199C9.28973 16.5699 8.69973 17.7899 8.13973 19.2699C7.56973 20.7499 7.10973 22.1999 6.76973 23.6299C6.47973 24.8699 6.13973 25.7099 5.75973 26.1499C5.40973 26.5399 4.87973 26.7599 4.17973 26.7899C2.97973 25.4799 1.98973 23.9599 1.28973 22.2899C1.23973 21.6499 1.21973 20.9299 1.21973 20.1399C1.21973 16.7099 1.70973 13.4399 2.68973 10.3499C2.91973 9.58988 3.30973 9.01988 3.85973 8.66988C4.39973 8.30988 5.15973 8.12988 6.12973 8.12988C6.65973 8.12988 7.02973 8.19988 7.23973 8.32988C7.45973 8.45988 7.55973 8.70988 7.55973 9.07988C7.55973 9.50988 7.35973 10.4599 6.96973 11.9399C6.69973 12.9899 6.48973 13.9099 6.32973 14.6899C6.16973 15.4699 6.03973 16.4399 5.93973 17.6099C6.64973 15.5399 7.49973 13.7999 8.48973 12.3699C9.47973 10.9499 10.4997 9.87988 11.5397 9.17988C12.5897 8.47988 13.5697 8.12988 14.4997 8.12988C15.4297 8.12988 16.0797 8.33988 16.4597 8.76988C16.8397 9.18988 17.0297 9.83988 17.0297 10.7099C17.0297 11.5799 16.7797 13.0899 16.2797 15.3099C16.0697 16.2599 15.9197 16.9699 15.8397 17.4499C17.1697 14.1999 18.6297 11.8299 20.2397 10.3499C21.8497 8.86988 23.3597 8.12988 24.7597 8.12988C26.4797 8.12988 27.3397 8.98988 27.3397 10.7099C27.3397 11.7399 27.0497 13.5999 26.4697 16.2999C25.9597 18.5999 25.7097 20.1099 25.7097 20.8499C25.7097 21.9099 26.0997 22.4399 26.8597 22.4399C27.3897 22.4399 28.0197 22.1199 28.7397 21.4699C29.4697 20.8199 30.4397 19.7699 31.6597 18.3199C31.6997 18.2599 31.7697 18.1699 31.8697 18.0599Z" fill="white"/>
</svg>
