<svg width="32" height="32" viewBox="0 0 32 32" fill="none" xmlns="http://www.w3.org/2000/svg">
<g clip-path="url(#clip0_76_315)">
<path d="M28.5099 25.98C25.5799 29.65 21.0599 32 15.9999 32C11.3199 32 7.10993 29.99 4.17993 26.79C4.87993 26.76 5.40993 26.54 5.75993 26.15C6.13993 25.71 6.47993 24.87 6.76993 23.63C7.10993 22.2 7.56993 20.75 8.13993 19.27C8.69993 17.79 9.28993 16.57 9.89993 15.62C10.5099 14.67 11.0099 14.2 11.4099 14.2C11.6999 14.2 11.8399 14.41 11.8399 14.83C11.8399 15.36 11.7399 16.47 11.5199 18.16C11.2599 20.06 11.1299 21.52 11.1299 22.52C11.1299 23.71 11.3499 24.72 11.7799 25.55C12.2199 26.38 12.8699 26.8 13.7399 26.8C14.6099 26.8 15.1999 26.59 15.5899 26.17C15.9699 25.74 16.3099 24.9 16.5999 23.63C16.9899 22.02 17.5099 20.49 18.1399 19.03C18.7799 17.58 19.4099 16.41 20.0399 15.52C20.6799 14.64 21.1699 14.2 21.5099 14.2C21.7999 14.2 21.9499 14.41 21.9499 14.83C21.9499 15.46 21.7799 16.61 21.4299 18.28C21.0599 20.18 20.8799 21.5 20.8799 22.24C20.8799 23.72 21.2199 24.85 21.9099 25.63C22.5899 26.41 23.6099 26.8 24.9599 26.8C26.3099 26.8 27.4399 26.53 28.5099 25.98Z" fill="#358C6C"/>
<path d="M32 16C32 16.7 31.96 17.38 31.87 18.06C31.77 18.17 31.7 18.26 31.66 18.32C30.44 19.77 29.47 20.82 28.74 21.47C28.02 22.12 27.39 22.44 26.86 22.44C26.1 22.44 25.71 21.91 25.71 20.85C25.71 20.11 25.96 18.6 26.47 16.3C27.05 13.6 27.34 11.74 27.34 10.71C27.34 8.99 26.48 8.13 24.76 8.13C23.36 8.13 21.85 8.87 20.24 10.35C18.63 11.83 17.17 14.2 15.84 17.45C15.92 16.97 16.07 16.26 16.28 15.31C16.78 13.09 17.03 11.55 17.03 10.71C17.03 9.87 16.84 9.19 16.46 8.77C16.08 8.34 15.42 8.13 14.5 8.13C13.58 8.13 12.59 8.48 11.54 9.18C10.5 9.88 9.48 10.95 8.49 12.37C7.5 13.8 6.65 15.54 5.94 17.61C6.04 16.44 6.17 15.47 6.33 14.69C6.49 13.91 6.7 12.99 6.97 11.94C7.36 10.46 7.56 9.51 7.56 9.08C7.56 8.71 7.46 8.46 7.24 8.33C7.03 8.2 6.66 8.13 6.13 8.13C5.16 8.13 4.4 8.31 3.86 8.67C3.31 9.02 2.92 9.59 2.69 10.35C1.71 13.44 1.22 16.71 1.22 20.14C1.22 20.93 1.24 21.65 1.29 22.29C0.46 20.36 0 18.23 0 16C0 7.17 7.16 0 16 0C24.84 0 32 7.17 32 16Z" fill="#358C6C"/>
<path d="M31.87 18.06C31.49 21.03 30.29 23.75 28.51 25.98C27.44 26.53 26.25 26.8 24.96 26.8C23.67 26.8 22.59 26.41 21.91 25.63C21.22 24.85 20.88 23.72 20.88 22.24C20.88 21.5 21.06 20.18 21.43 18.28C21.78 16.61 21.95 15.46 21.95 14.83C21.95 14.41 21.8 14.2 21.51 14.2C21.17 14.2 20.68 14.64 20.04 15.52C19.41 16.41 18.78 17.58 18.14 19.03C17.51 20.49 16.99 22.02 16.6 23.63C16.31 24.9 15.97 25.74 15.59 26.17C15.2 26.59 14.59 26.8 13.74 26.8C12.89 26.8 12.22 26.38 11.78 25.55C11.35 24.72 11.13 23.71 11.13 22.52C11.13 21.52 11.26 20.06 11.52 18.16C11.74 16.47 11.84 15.36 11.84 14.83C11.84 14.41 11.7 14.2 11.41 14.2C11.01 14.2 10.51 14.67 9.89997 15.62C9.28997 16.57 8.69997 17.79 8.13997 19.27C7.56997 20.75 7.10997 22.2 6.76997 23.63C6.47997 24.87 6.13997 25.71 5.75997 26.15C5.40997 26.54 4.87997 26.76 4.17997 26.79C2.97997 25.48 1.98997 23.96 1.28997 22.29C1.23997 21.65 1.21997 20.93 1.21997 20.14C1.21997 16.71 1.70997 13.44 2.68997 10.35C2.91997 9.59001 3.30997 9.02 3.85997 8.67C4.39997 8.31 5.15997 8.13 6.12997 8.13C6.65997 8.13 7.02997 8.2 7.23997 8.33C7.45997 8.46 7.55997 8.71 7.55997 9.08C7.55997 9.51 7.35997 10.46 6.96997 11.94C6.69997 12.99 6.48997 13.91 6.32997 14.69C6.16997 15.47 6.03997 16.44 5.93997 17.61C6.64997 15.54 7.49997 13.8 8.48997 12.37C9.47997 10.95 10.5 9.88001 11.54 9.18001C12.59 8.48001 13.57 8.13 14.5 8.13C15.43 8.13 16.08 8.34001 16.46 8.77001C16.84 9.19001 17.03 9.84 17.03 10.71C17.03 11.58 16.78 13.09 16.28 15.31C16.07 16.26 15.92 16.97 15.84 17.45C17.17 14.2 18.63 11.83 20.24 10.35C21.85 8.87001 23.36 8.13 24.76 8.13C26.48 8.13 27.34 8.99 27.34 10.71C27.34 11.74 27.05 13.6 26.47 16.3C25.96 18.6 25.71 20.11 25.71 20.85C25.71 21.91 26.1 22.44 26.86 22.44C27.39 22.44 28.02 22.12 28.74 21.47C29.47 20.82 30.44 19.77 31.66 18.32C31.7 18.26 31.77 18.17 31.87 18.06Z" fill="white"/>
</g>
<defs>
<clipPath id="clip0_76_315">
<rect width="32" height="32" fill="white"/>
</clipPath>
</defs>
</svg>
