<svg width="320" height="320" viewBox="0 0 320 320" fill="none" xmlns="http://www.w3.org/2000/svg">
<path d="M96.6361 84.4409C96.6361 84.4409 130.949 110.48 183.114 61.7917C229.44 18.5532 267.268 86.774 267.532 119.444C267.875 161.764 221.205 195.626 243.854 223.423C266.502 251.219 198.938 297.121 162.524 257.396C117.226 207.98 104.954 248.131 79.1346 248.131C60.6036 248.131 22.5577 202.085 48.2497 167.829C69.8692 139.004 58.0782 129.437 52.3684 119.444C44.1317 105.031 63.6922 65.91 96.6361 84.4409Z" fill="#358C6C" fill-opacity="0.15"/>
<path d="M234.391 141.983C236.236 142.669 238.251 142.715 240.168 142.273C248.203 140.43 275.829 135.547 271.029 156.955C269.983 161.201 253.804 184.989 276.845 193.671C278.534 194.316 280.319 194.668 282.126 194.711C289.221 194.857 303.279 193.182 309.163 187.193C316.271 179.958 308.505 183.389 308.505 183.389C308.505 183.389 281.484 195.181 271.939 182.67C270.877 181.278 270.2 179.256 270.007 177.516C269.671 174.499 271.011 170.511 272.771 167.039C275.153 162.341 286.59 141.206 261.758 135.049C256.038 133.687 247.729 132.464 237.017 136.974C230.768 139.605 232.152 141.151 234.391 141.983Z" fill="#3EA37E"/>
<path d="M239.92 134.093L232.728 136.785C230.245 137.715 228.986 140.48 229.915 142.963L230.272 143.916C231.201 146.398 233.967 147.657 236.449 146.728L243.642 144.037C246.124 143.108 247.384 140.342 246.455 137.859L246.098 136.907C245.169 134.423 242.403 133.164 239.92 134.093Z" fill="#358C6C"/>
<path d="M195.771 141.883L172.052 150.76C170.81 151.224 170.18 152.607 170.645 153.848L170.739 154.099C171.203 155.34 172.586 155.97 173.828 155.506L197.547 146.628C198.789 146.163 199.419 144.78 198.954 143.539L198.86 143.288C198.396 142.047 197.013 141.418 195.771 141.883Z" fill="white"/>
<path d="M202.392 159.57L178.672 168.447C177.431 168.912 176.801 170.295 177.266 171.536L177.359 171.786C177.824 173.027 179.207 173.657 180.448 173.192L204.168 164.315C205.409 163.85 206.039 162.467 205.575 161.226L205.481 160.976C205.017 159.735 203.633 159.105 202.392 159.57Z" fill="white"/>
<path d="M224.292 129.812L205.068 137.006C202.584 137.935 201.325 140.702 202.254 143.184L208.819 160.721C209.748 163.204 212.513 164.463 214.996 163.534L234.221 156.34C236.703 155.411 237.963 152.645 237.033 150.161L230.47 132.624C229.541 130.142 226.775 128.883 224.292 129.812Z" fill="#3EA37E"/>
<path d="M207.053 134.411L187.828 141.607C185.346 142.536 184.087 145.302 185.016 147.785L192.847 168.707C193.776 171.19 196.541 172.449 199.024 171.52L218.249 164.326C220.731 163.396 221.991 160.631 221.061 158.147L213.231 137.225C212.301 134.742 209.536 133.482 207.053 134.411Z" fill="#3EA37E"/>
<path d="M210.063 130.166L209.912 130.222C208.257 130.841 207.417 132.686 208.037 134.341L219.007 163.651C219.627 165.306 221.47 166.146 223.125 165.527L223.276 165.47C224.932 164.85 225.771 163.007 225.151 161.352L214.182 132.041C213.563 130.386 211.718 129.546 210.063 130.166Z" fill="#358C6C"/>
<path d="M14.0365 148.905C14.0365 148.905 52.6458 138.055 47.0404 163.053C46.0669 167.009 32.0542 187.375 48.7454 197.153C52.3294 199.252 56.4654 200.183 60.6189 200.161C68.0658 200.122 79.8714 198.689 85.1749 193.291C92.2827 186.056 84.5177 189.487 84.5177 189.487C84.5177 189.487 62.3437 198.608 50.9361 191.337C47.0409 188.855 45.2753 184.048 46.333 179.551C46.8737 177.317 47.6969 175.162 48.7829 173.137C51.2638 168.49 62.6025 147.304 37.7705 141.147C32.0501 139.785 23.7418 138.562 13.029 143.072C2.3162 147.583 14.0365 148.905 14.0365 148.905Z" fill="#3EA37E"/>
<path d="M90.3658 183.893L83.1736 186.585C80.6907 187.514 79.4313 190.28 80.3605 192.764L80.7171 193.716C81.6463 196.199 84.4122 197.458 86.8951 196.528L94.0873 193.837C96.5701 192.908 97.8295 190.142 96.9003 187.658L96.5437 186.706C95.6146 184.223 92.8485 182.964 90.3658 183.893Z" fill="#358C6C"/>
<path d="M102.517 172.06L91.8581 176.049C89.3753 176.979 88.1159 179.744 89.0451 182.228L94.185 195.96C95.1143 198.444 97.8802 199.703 100.363 198.774L111.022 194.784C113.505 193.855 114.764 191.089 113.835 188.606L108.695 174.873C107.766 172.39 105 171.131 102.517 172.06Z" fill="#3EA37E"/>
<path d="M120.263 161.485L104.367 167.435C101.884 168.364 100.625 171.13 101.554 173.613L109.384 194.536C110.314 197.019 113.08 198.279 115.562 197.349L131.458 191.4C133.941 190.471 135.201 187.705 134.272 185.221L126.441 164.299C125.512 161.816 122.746 160.556 120.263 161.485Z" fill="#3EA37E"/>
<path d="M123.631 157.153L123.48 157.209C121.824 157.828 120.985 159.673 121.604 161.328L132.573 190.639C133.193 192.294 135.037 193.134 136.692 192.514L136.843 192.457C138.498 191.838 139.338 189.994 138.719 188.338L127.748 159.028C127.129 157.374 125.285 156.534 123.631 157.153Z" fill="#358C6C"/>
<path d="M164.222 138.48C163.649 138.416 163.123 138.134 162.755 137.691C162.389 137.247 162.207 136.679 162.249 136.104L163.435 114.44C163.506 113.146 164.599 112.163 165.839 112.278L167.567 112.438C168.807 112.552 169.695 113.718 169.521 115.003L166.607 136.507C166.541 137.079 166.255 137.604 165.81 137.972C165.366 138.34 164.797 138.522 164.222 138.48Z" fill="#358C6C"/>
<path d="M153.981 140.347C153.802 140.4 153.616 140.417 153.431 140.397C153.247 140.377 153.068 140.321 152.905 140.232C152.742 140.144 152.599 140.024 152.482 139.879C152.366 139.735 152.279 139.568 152.226 139.391L147.991 125.914C147.868 125.531 147.902 125.114 148.085 124.756C148.269 124.397 148.586 124.127 148.97 124.003L150.066 123.672C150.255 123.617 150.453 123.602 150.647 123.627C150.841 123.652 151.028 123.717 151.196 123.819C151.364 123.92 151.509 124.055 151.622 124.215C151.735 124.375 151.814 124.556 151.853 124.748L154.992 138.556C155.08 138.927 155.024 139.317 154.837 139.65C154.649 139.981 154.344 140.231 153.981 140.347Z" fill="#358C6C"/>
<path d="M148.265 148.119C147.506 149.06 145.979 149.048 144.804 148.094L123.946 131.146C122.699 130.134 122.332 128.458 123.137 127.462L124.259 126.072C125.065 125.074 126.718 125.157 127.897 126.252L147.634 144.59C148.746 145.622 149.024 147.18 148.265 148.119Z" fill="#358C6C"/>
<path d="M157.907 191.893C158.445 192.101 158.88 192.509 159.122 193.031C159.366 193.553 159.395 194.15 159.208 194.694L152.528 215.336C152.129 216.569 150.822 217.24 149.651 216.813L148.021 216.217C146.851 215.79 146.29 214.436 146.786 213.239L155.096 193.192C155.307 192.655 155.717 192.221 156.241 191.978C156.765 191.736 157.361 191.705 157.907 191.893Z" fill="#358C6C"/>
<path d="M168.285 192.703C168.47 192.697 168.656 192.729 168.829 192.795C169.002 192.862 169.161 192.961 169.296 193.089C169.43 193.216 169.539 193.369 169.614 193.538C169.69 193.707 169.732 193.89 169.737 194.077L170.39 208.187C170.411 208.59 170.273 208.983 170.003 209.282C169.734 209.583 169.357 209.763 168.956 209.785L167.811 209.825C167.614 209.83 167.42 209.794 167.238 209.72C167.057 209.646 166.893 209.535 166.756 209.394C166.62 209.254 166.514 209.087 166.445 208.903C166.378 208.719 166.348 208.523 166.358 208.328L166.85 194.177C166.86 193.795 167.014 193.432 167.28 193.159C167.546 192.886 167.905 192.723 168.285 192.703Z" fill="#358C6C"/>
<path d="M175.796 186.648C176.77 185.933 178.243 186.334 179.135 187.557L194.975 209.269C195.92 210.566 195.848 212.279 194.815 213.038L193.375 214.095C192.342 214.854 190.763 214.352 189.903 212.992L175.503 190.222C174.694 188.941 174.823 187.364 175.796 186.648Z" fill="#358C6C"/>
</svg>
