<svg width="28" height="28" viewBox="0 0 28 28" fill="none" xmlns="http://www.w3.org/2000/svg">
<path d="M19.5616 15.8287C24.0724 15.8287 27.9999 17.4298 27.9999 21.035C27.9999 22.9355 27.2127 23.7779 25.6044 23.7779L18.7609 23.7779C18.0966 23.7779 17.6273 23.1041 17.7585 22.4529C17.8505 21.996 18.234 21.5766 18.7001 21.5767C21.4631 21.577 25.7717 21.579 25.7717 21.579C25.7717 21.579 25.7986 21.216 25.7986 21.035C25.7986 19.1856 22.964 18.03 19.5616 18.03C18.9843 18.03 18.4233 18.0633 17.8897 18.1276C17.4798 18.177 17.0829 17.9821 16.8506 17.6407C16.4214 17.0099 16.6476 16.0557 17.4045 15.9597C18.0978 15.8718 18.8219 15.8287 19.5616 15.8287ZM8.55504 15.8287C13.0658 15.8287 16.9934 17.4298 16.9934 21.035C16.9934 22.9355 16.2062 23.7779 14.5978 23.7779H2.51224C0.903922 23.7779 0.116699 22.9355 0.116699 21.035C0.116699 17.4298 4.04426 15.8287 8.55504 15.8287ZM8.55504 18.03C5.15263 18.03 2.31801 19.1856 2.31801 21.035C2.31801 21.2169 2.34247 21.579 2.34247 21.579H14.7652C14.7652 21.579 14.7921 21.216 14.7921 21.035C14.7921 19.1856 11.9575 18.03 8.55504 18.03ZM19.5616 4.45532C22.3654 4.45532 24.6368 6.72673 24.6368 9.53056C24.6368 12.3344 22.3654 14.6058 19.5616 14.6058C16.7577 14.6058 14.4863 12.3344 14.4863 9.53056C14.4863 6.72673 16.7577 4.45532 19.5616 4.45532ZM8.55504 4.45532C11.3589 4.45532 13.6303 6.72673 13.6303 9.53056C13.6303 12.3344 11.3589 14.6058 8.55504 14.6058C5.75121 14.6058 3.47981 12.3344 3.47981 9.53056C3.47981 6.72673 5.75121 4.45532 8.55504 4.45532ZM19.5616 6.65663C17.9735 6.65663 16.6876 7.94248 16.6876 9.53056C16.6876 11.1186 17.9735 12.4045 19.5616 12.4045C21.1497 12.4045 22.4355 11.1186 22.4355 9.53056C22.4355 7.94248 21.1497 6.65663 19.5616 6.65663ZM8.55504 6.65663C6.96696 6.65663 5.68111 7.94248 5.68111 9.53056C5.68111 11.1186 6.96696 12.4045 8.55504 12.4045C10.1431 12.4045 11.429 11.1186 11.429 9.53056C11.429 7.94248 10.1431 6.65663 8.55504 6.65663Z" fill="#222222"/>
</svg>
