<svg width="20" height="20" viewBox="0 0 20 20" fill="none" xmlns="http://www.w3.org/2000/svg">
<path fill-rule="evenodd" clip-rule="evenodd" d="M13.3876 3.91174C13.1456 3.8331 12.8196 3.82357 11.8015 3.82357H6.13976C5.40636 3.82357 4.90275 3.82417 4.51234 3.85607C4.13094 3.88723 3.92606 3.94437 3.77779 4.01992C3.43882 4.19264 3.16323 4.46823 2.99052 4.80719C2.92735 4.93116 2.87705 5.0947 2.84405 5.36788C2.91224 5.36766 2.98468 5.36766 3.06181 5.36766H13.8089C14.0964 5.36766 14.3601 5.36766 14.6029 5.36921C14.5898 5.24312 14.571 5.15086 14.5442 5.06836C14.366 4.51992 13.9361 4.08994 13.3876 3.91174ZM2.79417 12.7794L2.79417 7.15543C2.79417 7.06367 2.79422 6.98383 2.79462 6.91223C2.8724 6.91179 2.95988 6.91178 3.06181 6.91178H13.8089C14.6991 6.91178 15.274 6.91298 15.7115 6.94872C16.131 6.983 16.2865 7.04118 16.3628 7.08008C16.6534 7.22812 16.8896 7.46434 17.0376 7.75488C17.0765 7.83123 17.1347 7.98675 17.169 8.40623C17.2047 8.84374 17.2059 9.41857 17.2059 10.3088V12.7794C17.2059 13.6697 17.2047 14.2445 17.169 14.682C17.1347 15.1015 17.0765 15.257 17.0376 15.3334C16.8896 15.6239 16.6534 15.8601 16.3628 16.0082C16.2865 16.0471 16.131 16.1053 15.7115 16.1395C15.274 16.1753 14.6991 16.1765 13.8089 16.1765H6.19123C5.30096 16.1765 4.72612 16.1753 4.28862 16.1395C3.86914 16.1053 3.71362 16.0471 3.63727 16.0082C3.34673 15.8601 3.11051 15.6239 2.96247 15.3334C2.92356 15.257 2.86539 15.1015 2.83111 14.682C2.79537 14.2445 2.79417 13.6697 2.79417 12.7794ZM1.25005 7.13682V12.7794C1.25005 14.509 1.25005 15.3738 1.58665 16.0344C1.88273 16.6155 2.35517 17.0879 2.93625 17.384C3.59686 17.7206 4.46165 17.7206 6.19123 17.7206H13.8089C15.5384 17.7206 16.4032 17.7206 17.0638 17.384C17.6449 17.0879 18.1174 16.6155 18.4135 16.0344C18.75 15.3738 18.75 14.509 18.75 12.7794V10.3088C18.75 8.57926 18.75 7.71448 18.4135 7.05387C18.1174 6.47278 17.6449 6.00034 17.0638 5.70426C16.8058 5.5728 16.5167 5.49269 16.1571 5.44386C16.1368 5.12473 16.0958 4.84663 16.0128 4.5912C15.6818 3.57268 14.8833 2.77414 13.8648 2.4432C13.3583 2.27864 12.7627 2.27896 11.9349 2.27941L6.10741 2.27946C5.41423 2.27945 4.84732 2.27944 4.3866 2.31708C3.90971 2.35605 3.47901 2.43916 3.07677 2.6441C2.44726 2.96486 1.93545 3.47667 1.6147 4.10618C1.40975 4.50841 1.32664 4.93912 1.28768 5.416C1.25003 5.87673 1.25004 6.44364 1.25005 7.13682ZM13.3456 10.5148C12.9192 10.5148 12.5736 10.8604 12.5736 11.2868C12.5736 11.7132 12.9192 12.0589 13.3456 12.0589H14.375C14.8014 12.0589 15.1471 11.7132 15.1471 11.2868C15.1471 10.8604 14.8014 10.5148 14.375 10.5148H13.3456Z" fill="#222222"/>
<path fill-rule="evenodd" clip-rule="evenodd" d="M14.5442 5.06836C14.366 4.51992 13.9361 4.08994 13.3876 3.91174C13.1456 3.8331 12.8196 3.82357 11.8015 3.82357H6.13976C5.40636 3.82357 4.90275 3.82417 4.51234 3.85607C4.13094 3.88723 3.92606 3.94437 3.77779 4.01992C3.43882 4.19264 3.16323 4.46823 2.99052 4.80719C2.94454 4.89743 2.90538 5.00862 2.87475 5.1678C2.86329 5.22731 2.85303 5.29354 2.84405 5.36788C2.90745 5.36768 2.97452 5.36766 3.04562 5.36766C3.05099 5.36766 3.05639 5.36766 3.06181 5.36766H13.8089C14.0188 5.36766 14.216 5.36766 14.4016 5.36826C14.4703 5.36849 14.5374 5.36879 14.6029 5.36921C14.5948 5.29151 14.5846 5.22665 14.5717 5.16902C14.5636 5.13312 14.5545 5.10002 14.5442 5.06836ZM14.3654 5.16815C14.3618 5.15496 14.358 5.14235 14.354 5.13016C14.1956 4.64261 13.8134 4.26037 13.3258 4.10196C13.2293 4.0706 13.1076 4.04977 12.8754 4.03791C12.6424 4.026 12.3118 4.02357 11.8015 4.02357H6.13976C5.40298 4.02357 4.90898 4.02433 4.52862 4.05541C4.15951 4.08557 3.98392 4.13936 3.86859 4.19812C3.56725 4.35166 3.32226 4.59666 3.16872 4.89799C3.13621 4.96178 3.10517 5.04416 3.07883 5.16766H13.8089C14.0049 5.16766 14.1901 5.16766 14.3654 5.16815ZM2.99417 7.11179C2.99417 7.12602 2.99417 7.14056 2.99417 7.15543L2.99417 12.7794C2.99417 13.6731 2.99553 14.2383 3.03045 14.6657C3.06373 15.073 3.11858 15.1992 3.14067 15.2426C3.26953 15.4955 3.47516 15.7011 3.72807 15.83C3.77142 15.8521 3.8976 15.9069 4.30491 15.9402C4.73235 15.9751 5.29752 15.9765 6.19123 15.9765H13.8089C14.7026 15.9765 15.2678 15.9751 15.6952 15.9402C16.1025 15.9069 16.2287 15.8521 16.272 15.83C16.5249 15.7011 16.7306 15.4955 16.8594 15.2426C16.8815 15.1992 16.9364 15.073 16.9696 14.6657C17.0046 14.2383 17.0059 13.6731 17.0059 12.7794V10.3088C17.0059 9.41513 17.0046 8.84996 16.9696 8.42252C16.9364 8.01522 16.8815 7.88903 16.8594 7.84568C16.7306 7.59277 16.5249 7.38714 16.272 7.25828C16.2287 7.23619 16.1025 7.18134 15.6952 7.14806C15.2678 7.11314 14.7026 7.11178 13.8089 7.11178H3.06181C3.0385 7.11178 3.01597 7.11178 2.99417 7.11179ZM2.79462 6.91223C2.79422 6.98383 2.79417 7.06367 2.79417 7.15543L2.79417 12.7794C2.79417 13.6697 2.79537 14.2445 2.83111 14.682C2.86539 15.1015 2.92356 15.257 2.96247 15.3334C3.11051 15.6239 3.34673 15.8601 3.63727 16.0082C3.71362 16.0471 3.86914 16.1053 4.28862 16.1395C4.72612 16.1753 5.30096 16.1765 6.19123 16.1765H13.8089C14.6991 16.1765 15.274 16.1753 15.7115 16.1395C16.131 16.1053 16.2865 16.0471 16.3628 16.0082C16.6534 15.8601 16.8896 15.6239 17.0376 15.3334C17.0765 15.257 17.1347 15.1015 17.169 14.682C17.2047 14.2445 17.2059 13.6697 17.2059 12.7794V10.3088C17.2059 9.41857 17.2047 8.84374 17.169 8.40623C17.1347 7.98675 17.0765 7.83123 17.0376 7.75488C16.8896 7.46434 16.6534 7.22812 16.3628 7.08008C16.2865 7.04118 16.131 6.983 15.7115 6.94872C15.274 6.91298 14.6991 6.91178 13.8089 6.91178H3.06181C2.95988 6.91178 2.8724 6.91179 2.79462 6.91223ZM1.05005 12.7887L1.05005 7.12885C1.05004 6.44219 1.05003 5.86859 1.08834 5.39972C1.12832 4.91042 1.2148 4.45048 1.4365 4.01538C1.77642 3.34824 2.31883 2.80583 2.98597 2.4659C3.42108 2.24421 3.88101 2.15772 4.37031 2.11775C4.83918 2.07944 5.41278 2.07945 6.09944 2.07946L11.9638 2.07939C12.7665 2.07893 13.3898 2.07858 13.9266 2.25299C15.006 2.60371 15.8523 3.44999 16.203 4.5294C16.2781 4.76069 16.3203 5.00518 16.3444 5.27024C16.6492 5.32264 16.9124 5.40262 17.1546 5.52606C17.7734 5.84131 18.2764 6.34435 18.5917 6.96307C18.7767 7.32627 18.8642 7.73687 18.9073 8.2642C18.9501 8.7873 18.95 9.44258 18.95 10.2995V12.7888C18.95 13.6457 18.9501 14.301 18.9073 14.8241C18.8642 15.3514 18.7767 15.762 18.5917 16.1252C18.2764 16.7439 17.7734 17.247 17.1546 17.5622C16.7914 17.7473 16.3808 17.8348 15.8535 17.8779C15.3304 17.9206 14.6751 17.9206 13.8182 17.9206H6.18193C5.325 17.9206 4.6697 17.9206 4.14659 17.8779C3.61925 17.8348 3.20866 17.7473 2.84546 17.5622C2.22674 17.247 1.7237 16.7439 1.40845 16.1252C1.22339 15.762 1.13587 15.3514 1.09279 14.8241C1.05005 14.3009 1.05005 13.6457 1.05005 12.7887ZM16.1571 5.44386C16.5167 5.49269 16.8058 5.5728 17.0638 5.70426C17.6449 6.00034 18.1174 6.47278 18.4135 7.05387C18.75 7.71448 18.75 8.57926 18.75 10.3088V12.7794C18.75 14.509 18.75 15.3738 18.4135 16.0344C18.1174 16.6155 17.6449 17.0879 17.0638 17.384C16.4032 17.7206 15.5384 17.7206 13.8089 17.7206H6.19123C4.46165 17.7206 3.59686 17.7206 2.93625 17.384C2.35517 17.0879 1.88273 16.6155 1.58665 16.0344C1.25005 15.3738 1.25005 14.509 1.25005 12.7794V7.13682C1.25004 6.44364 1.25003 5.87673 1.28768 5.416C1.32664 4.93912 1.40975 4.50841 1.6147 4.10618C1.93545 3.47667 2.44726 2.96486 3.07677 2.6441C3.47901 2.43916 3.90971 2.35605 4.3866 2.31708C4.84732 2.27944 5.41423 2.27945 6.10741 2.27946L11.9349 2.27941C12.7627 2.27896 13.3583 2.27864 13.8648 2.4432C14.8833 2.77414 15.6818 3.57268 16.0128 4.5912C16.0958 4.84663 16.1368 5.12473 16.1571 5.44386ZM12.3736 11.2868C12.3736 10.75 12.8088 10.3148 13.3456 10.3148H14.375C14.9119 10.3148 15.3471 10.75 15.3471 11.2868C15.3471 11.8237 14.9119 12.2589 14.375 12.2589H13.3456C12.8088 12.2589 12.3736 11.8237 12.3736 11.2868ZM12.5736 11.2868C12.5736 10.8604 12.9192 10.5148 13.3456 10.5148H14.375C14.8014 10.5148 15.1471 10.8604 15.1471 11.2868C15.1471 11.7132 14.8014 12.0589 14.375 12.0589H13.3456C12.9192 12.0589 12.5736 11.7132 12.5736 11.2868Z" fill="#222222"/>
<path fill-rule="evenodd" clip-rule="evenodd" d="M12.8813 3.9213C12.6448 3.90921 12.3111 3.90681 11.8015 3.90681H6.13975C5.40494 3.90681 4.90533 3.90748 4.51911 3.93903C4.14284 3.96978 3.95016 4.02552 3.81561 4.09408C3.49232 4.2588 3.22948 4.52164 3.06476 4.84493C3.0145 4.94357 2.97109 5.07354 2.9394 5.28427C2.97888 5.28423 3.01967 5.28423 3.0618 5.28423H13.8089C14.0593 5.28423 14.2919 5.28423 14.5084 5.28526C14.4971 5.20945 14.4828 5.1489 14.465 5.09401C14.295 4.57095 13.8849 4.16086 13.3619 3.9909C13.251 3.9549 13.1175 3.93336 12.8813 3.9213ZM14.5927 5.28571C14.5806 5.20031 14.5648 5.13153 14.5442 5.06836C14.366 4.51992 13.9361 4.08994 13.3876 3.91174C13.1456 3.8331 12.8196 3.82357 11.8015 3.82357H6.13976C5.40636 3.82357 4.90275 3.82417 4.51234 3.85607C4.13094 3.88723 3.92606 3.94437 3.77779 4.01992C3.43882 4.19264 3.16323 4.46823 2.99052 4.80719C2.93406 4.918 2.88787 5.06033 2.85513 5.28442C2.85124 5.31103 2.84755 5.33889 2.84405 5.36788C2.87135 5.36779 2.89932 5.36765 2.92802 5.36761C2.97099 5.36757 3.01556 5.36766 3.06181 5.36766H13.8089C14.0637 5.36766 14.2997 5.36757 14.5191 5.36864C14.5473 5.36878 14.5752 5.36903 14.6029 5.36921C14.5998 5.33965 14.5965 5.31186 14.5927 5.28571ZM2.87763 6.99515C2.87751 7.04436 2.87749 7.09742 2.87749 7.15534L2.87749 12.7793C2.87749 13.671 2.87876 14.2418 2.91416 14.6752C2.94802 15.0896 3.00481 15.2329 3.03671 15.2955C3.17676 15.5703 3.40023 15.7938 3.67509 15.9338C3.73769 15.9657 3.88099 16.0225 4.29539 16.0564C4.72871 16.0918 5.29952 16.0931 6.19122 16.0931H13.8089C14.7006 16.0931 15.2714 16.0918 15.7047 16.0564C16.1191 16.0225 16.2624 15.9657 16.325 15.9338C16.5998 15.7938 16.8233 15.5703 16.9634 15.2955C16.9953 15.2329 17.0521 15.0896 17.0859 14.6752C17.1213 14.2418 17.1226 13.671 17.1226 12.7793V10.3087C17.1226 9.41704 17.1213 8.84623 17.0859 8.41292C17.0521 7.99852 16.9953 7.85522 16.9634 7.79262C16.8233 7.51775 16.5998 7.29428 16.325 7.15423C16.2624 7.12234 16.1191 7.06554 15.7047 7.03169C15.2714 6.99628 14.7006 6.99502 13.8089 6.99502H3.0618C2.99446 6.99502 2.93355 6.99502 2.87763 6.99515ZM2.79462 6.91223C2.79422 6.98383 2.79417 7.06367 2.79417 7.15543L2.79417 12.7794C2.79417 13.6697 2.79537 14.2445 2.83111 14.682C2.86539 15.1015 2.92356 15.257 2.96247 15.3334C3.11051 15.6239 3.34673 15.8601 3.63727 16.0082C3.71362 16.0471 3.86914 16.1053 4.28862 16.1395C4.72612 16.1753 5.30096 16.1765 6.19123 16.1765H13.8089C14.6991 16.1765 15.274 16.1753 15.7115 16.1395C16.131 16.1053 16.2865 16.0471 16.3628 16.0082C16.6534 15.8601 16.8896 15.6239 17.0376 15.3334C17.0765 15.257 17.1347 15.1015 17.169 14.682C17.2047 14.2445 17.2059 13.6697 17.2059 12.7794V10.3088C17.2059 9.41857 17.2047 8.84374 17.169 8.40623C17.1347 7.98675 17.0765 7.83123 17.0376 7.75488C16.8896 7.46434 16.6534 7.22812 16.3628 7.08008C16.2865 7.04118 16.131 6.983 15.7115 6.94872C15.274 6.91298 14.6991 6.91178 13.8089 6.91178H3.06181C2.95988 6.91178 2.8724 6.91179 2.79462 6.91223ZM1.16671 12.7833L1.16671 7.13334C1.1667 6.44293 1.16669 5.87324 1.20461 5.40912C1.244 4.92706 1.32851 4.48418 1.54044 4.06825C1.86918 3.42306 2.39374 2.8985 3.03893 2.56976C3.45486 2.35783 3.89774 2.27332 4.3798 2.23393C4.84392 2.19601 5.4136 2.19602 6.10402 2.19603L11.9477 2.19597C12.7644 2.19553 13.3714 2.19519 13.8905 2.36385C14.9344 2.70303 15.7528 3.52146 16.092 4.56535C16.1719 4.81129 16.2136 5.0755 16.2356 5.37081C16.5711 5.42125 16.8496 5.50148 17.1017 5.62991C17.6984 5.93398 18.1836 6.41917 18.4877 7.01594C18.663 7.35995 18.7485 7.75349 18.791 8.27361C18.8334 8.79196 18.8334 9.44333 18.8334 10.3048V12.7833C18.8334 13.6447 18.8334 14.2961 18.791 14.8145C18.7485 15.3346 18.663 15.7281 18.4877 16.0721C18.1836 16.6689 17.6984 17.1541 17.1017 17.4582C16.7577 17.6334 16.3641 17.719 15.844 17.7615C15.3256 17.8038 14.6743 17.8038 13.8128 17.8038H6.18725C5.3258 17.8038 4.67444 17.8038 4.15608 17.7615C3.63596 17.719 3.24242 17.6334 2.89841 17.4582C2.30164 17.1541 1.81645 16.6689 1.51239 16.0721C1.3371 15.7281 1.25155 15.3346 1.20906 14.8145C1.16671 14.2961 1.16671 13.6447 1.16671 12.7833ZM16.1571 5.44386C16.5167 5.49269 16.8058 5.5728 17.0638 5.70426C17.6449 6.00034 18.1174 6.47278 18.4135 7.05387C18.75 7.71448 18.75 8.57926 18.75 10.3088V12.7794C18.75 14.509 18.75 15.3738 18.4135 16.0344C18.1174 16.6155 17.6449 17.0879 17.0638 17.384C16.4032 17.7206 15.5384 17.7206 13.8089 17.7206H6.19123C4.46165 17.7206 3.59686 17.7206 2.93625 17.384C2.35517 17.0879 1.88273 16.6155 1.58665 16.0344C1.25005 15.3738 1.25005 14.509 1.25005 12.7794V7.13682C1.25004 6.44364 1.25003 5.87673 1.28768 5.416C1.32664 4.93912 1.40975 4.50841 1.6147 4.10618C1.93545 3.47667 2.44726 2.96486 3.07677 2.6441C3.47901 2.43916 3.90971 2.35605 4.3866 2.31708C4.84732 2.27944 5.41423 2.27945 6.10741 2.27946L11.9349 2.27941C12.7627 2.27896 13.3583 2.27864 13.8648 2.4432C14.8833 2.77414 15.6818 3.57268 16.0128 4.5912C16.0958 4.84663 16.1368 5.12473 16.1571 5.44386ZM12.4902 11.2867C12.4902 10.8143 12.8732 10.4314 13.3456 10.4314H14.375C14.8475 10.4314 15.2304 10.8143 15.2304 11.2867C15.2304 11.7592 14.8475 12.1421 14.375 12.1421H13.3456C12.8732 12.1421 12.4902 11.7592 12.4902 11.2867ZM12.5736 11.2868C12.5736 10.8604 12.9192 10.5148 13.3456 10.5148H14.375C14.8014 10.5148 15.1471 10.8604 15.1471 11.2868C15.1471 11.7132 14.8014 12.0589 14.375 12.0589H13.3456C12.9192 12.0589 12.5736 11.7132 12.5736 11.2868Z" fill="#222222"/>
</svg>
