<svg width="20" height="20" viewBox="0 0 20 20" fill="none" xmlns="http://www.w3.org/2000/svg">
<path fill-rule="evenodd" clip-rule="evenodd" d="M7.66667 3.5H12.3333C12.4254 3.5 12.5 3.57462 12.5 3.66667V4.49995H7.5V3.66667C7.5 3.57462 7.57462 3.5 7.66667 3.5ZM6 4.49995V3.66667C6 2.74619 6.74619 2 7.66667 2H12.3333C13.2538 2 14 2.74619 14 3.66667V4.49995H16.5C17.8807 4.49995 19 5.61924 19 6.99995V16C19 17.3807 17.8807 18.5 16.5 18.5H3.5C2.11929 18.5 1 17.3807 1 16V6.99995C1 5.61924 2.11929 4.49995 3.5 4.49995H6ZM6 5.99995H3.5C2.94772 5.99995 2.5 6.44767 2.5 6.99995V13H17.5V6.99995C17.5 6.44767 17.0523 5.99995 16.5 5.99995H14V6H12.5H7.5H6V5.99995ZM2.5 16V14.5H17.5V16C17.5 16.5522 17.0523 17 16.5 17H3.5C2.94772 17 2.5 16.5522 2.5 16ZM8.33325 9.74995H7.58325V11.25H8.33325H11.6666H12.4166V9.74995H11.6666H8.33325Z" fill="#222222"/>
</svg>
