<svg width="20" height="20" viewBox="0 0 20 20" fill="none" xmlns="http://www.w3.org/2000/svg">
<g clip-path="url(#clip0_261_3270)">
<circle cx="10" cy="10" r="10" fill="#222222"/>
<path fill-rule="evenodd" clip-rule="evenodd" d="M7.1715 5.75736C6.78098 5.36684 6.14781 5.36684 5.75729 5.75736C5.36676 6.14788 5.36676 6.78105 5.75729 7.17157L8.58572 10L5.75729 12.8284C5.36676 13.219 5.36676 13.8521 5.75729 14.2426C6.14781 14.6332 6.78098 14.6332 7.1715 14.2426L9.99993 11.4142L12.8284 14.2426C13.2189 14.6332 13.852 14.6332 14.2426 14.2426C14.6331 13.8521 14.6331 13.219 14.2426 12.8284L11.4141 10L14.2426 7.17157C14.6331 6.78105 14.6331 6.14788 14.2426 5.75736C13.852 5.36684 13.2189 5.36683 12.8284 5.75736L9.99993 8.58579L7.1715 5.75736Z" fill="white"/>
</g>
<defs>
<clipPath id="clip0_261_3270">
<rect width="20" height="20" fill="white"/>
</clipPath>
</defs>
</svg>
