<svg width="20" height="20" viewBox="0 0 20 20" fill="none" xmlns="http://www.w3.org/2000/svg">
<path fill-rule="evenodd" clip-rule="evenodd" d="M2.22356 16.0912C1.83303 16.4817 1.83303 17.1149 2.22356 17.5054C2.61408 17.8959 3.24725 17.8959 3.63777 17.5054L9.72897 11.4142L15.8202 17.5054C16.2107 17.896 16.8439 17.896 17.2344 17.5054C17.6249 17.1149 17.6249 16.4817 17.2344 16.0912L11.1432 9.99999L17.2344 3.90877C17.6249 3.51824 17.6249 2.88508 17.2344 2.49455C16.8439 2.10403 16.2107 2.10403 15.8202 2.49455L9.72897 8.58578L3.63777 2.49458C3.24725 2.10405 2.61408 2.10405 2.22356 2.49458C1.83303 2.8851 1.83303 3.51827 2.22356 3.90879L8.31476 9.99999L2.22356 16.0912Z" fill="#222222"/>
</svg>
