<svg width="20" height="20" viewBox="0 0 20 20" fill="none" xmlns="http://www.w3.org/2000/svg">
<path d="M9.32339 5.28546L10 5.90719L10.6766 5.28546L10.8829 5.09589C11.7287 4.35446 12.6441 4 13.6288 4C16.0391 4 18 5.96307 18 8.39326C18 9.64868 17.7737 10.5051 17.0724 11.471C16.3185 12.5096 15.0024 13.6934 12.6911 15.4989L10.5973 17.0583C10.2429 17.3223 9.75715 17.3223 9.40269 17.0583L7.30887 15.4989C4.99755 13.6934 3.68152 12.5096 2.92759 11.471C2.22631 10.5051 2 9.64868 2 8.39326C2 5.96307 3.96092 4 6.37124 4C7.35591 4 8.2713 4.35446 9.1171 5.0959L9.32339 5.28546Z" stroke="#222222" stroke-width="2" stroke-linecap="round"/>
</svg>
