<svg width="20" height="20" viewBox="0 0 20 20" fill="none" xmlns="http://www.w3.org/2000/svg">
<path d="M3 7.77978L3 7.7803C3 9.0571 3.46443 10.4324 4.19471 11.7884C4.92029 13.1356 5.87161 14.3962 6.75766 15.4248C7.2413 15.9859 7.74438 16.5306 8.266 17.0578C9.22732 18.0296 10.7726 18.0296 11.7339 17.0578C12.2555 16.5306 12.7586 15.9859 13.2423 15.4248L3 7.77978ZM3 7.77978C2.9986 5.05466 4.68759 2.57651 7.31185 1.51985C9.94005 0.461594 12.9615 1.05077 14.962 2.99707L14.964 2.99894M3 7.77978L14.964 2.99894M14.964 2.99894C16.2762 4.2688 17.0058 5.98993 17 7.77704V7.7803M14.964 2.99894L17 7.7803M17 7.7803C17 9.05709 16.5355 10.4324 15.8052 11.7884M17 7.7803L15.8052 11.7884M15.8052 11.7884C15.0797 13.1355 14.1285 14.396 13.2425 15.4246L15.8052 11.7884Z" stroke="#222222" stroke-width="2"/>
<circle cx="10" cy="8" r="2" stroke="#222222" stroke-width="2"/>
</svg>
