<svg width="20" height="20" viewBox="0 0 20 20" fill="none" xmlns="http://www.w3.org/2000/svg">
<g clip-path="url(#clip0_486_8000)">
<path d="M17.7664 16.2854L17.742 16.3098L17.7194 16.3359L17.0534 17.1027C15.8428 18.2373 14.1537 18.4424 12.1578 17.8272C10.1361 17.2041 7.9621 15.7718 6.1132 13.9278C4.26449 12.0839 2.82309 9.9104 2.18737 7.8857C1.55964 5.88644 1.75161 4.19432 2.86393 2.98236L3.7037 2.25213L3.72403 2.23445L3.74338 2.2157C3.99965 1.96739 4.34343 1.83005 4.70025 1.83344C5.04136 1.83667 5.36813 1.96825 5.61598 2.20096L5.63926 2.23066C5.67904 2.28166 5.73536 2.35425 5.80321 2.44194C5.93869 2.617 6.11745 2.84872 6.29587 3.08024C6.4742 3.31164 6.65183 3.54238 6.78489 3.7153L6.94554 3.92408L6.99048 3.98251L7.0023 3.99789L7.00533 4.00183L7.00609 4.00282L7.00629 4.00307L7.00633 4.00313L7.79906 3.39355L7.00635 4.00315L7.03851 4.04498L7.0749 4.08319C7.31823 4.33869 7.45376 4.67811 7.45335 5.03094C7.45294 5.38376 7.31661 5.72287 7.07269 5.9778L7.04182 6.01007L7.01394 6.04496L6.12638 7.15595L5.75882 7.61603L5.98289 8.16062C6.52335 9.47418 7.31806 10.668 8.32136 11.6735C9.32465 12.6789 10.5167 13.4762 11.8291 14.0195L12.3734 14.2448L12.8343 13.8781L13.9545 12.9867L13.9904 12.958L14.0236 12.9262C14.2785 12.6821 14.6176 12.5455 14.9705 12.5449C15.3235 12.5443 15.6631 12.6798 15.9187 12.9231L15.9566 12.9593L15.9981 12.9912L16.6082 12.1988L15.9982 12.9912L15.9982 12.9913L15.9985 12.9915L15.9995 12.9922L16.0034 12.9953L16.0188 13.0071L16.0772 13.0521L16.286 13.2129L16.9212 13.7025C17.1528 13.8811 17.3847 14.0601 17.5599 14.1958C17.6477 14.2638 17.7205 14.3202 17.7717 14.3602L17.8003 14.3826C18.0356 14.6358 18.1671 14.9692 18.1671 15.3161C18.1672 15.6795 18.0231 16.0281 17.7664 16.2854ZM5.58893 2.16657L5.5889 2.16653L5.58893 2.16657Z" stroke="#222222" stroke-width="2"/>
</g>
<defs>
<clipPath id="clip0_486_8000">
<rect width="20" height="20" fill="white"/>
</clipPath>
</defs>
</svg>
