<svg width="20" height="20" viewBox="0 0 20 20" fill="none" xmlns="http://www.w3.org/2000/svg">
<g clip-path="url(#clip0_156_3420)">
<path d="M12.6916 6.59723L12.9257 7.13969L13.5138 7.19637L18.2932 7.65699C18.8045 7.70627 18.951 7.94315 18.9839 8.04888C19.0164 8.1533 19.0313 8.4292 18.6371 8.75823L14.8954 11.8821L14.4025 12.2937L14.5716 12.9131L15.9606 18.0022C16.1062 18.5356 15.9132 18.7289 15.8612 18.7657C15.8138 18.7993 15.577 18.9196 15.1274 18.6006L10.5809 15.3745L10.0022 14.9639L9.42351 15.3745L4.87701 18.6006C4.43159 18.9166 4.19377 18.7985 4.1441 18.7634C4.09134 18.7261 3.89867 18.5338 4.04377 18.0022L5.43284 12.9131L5.60191 12.2937L5.10901 11.8821L1.36725 8.75823C0.967492 8.42448 0.984359 8.14802 1.01567 8.04734C1.04736 7.94542 1.19232 7.70698 1.71094 7.65699L6.48949 7.19636L7.07747 7.13969L7.31162 6.59738L9.41693 1.72137C9.62066 1.24953 9.88994 1.18003 10.0021 1.18005C10.1144 1.18008 10.3837 1.24984 10.5872 1.72139L12.6916 6.59723Z" stroke="#222222" stroke-width="2"/>
</g>
<defs>
<clipPath id="clip0_156_3420">
<rect width="20" height="20" fill="white"/>
</clipPath>
</defs>
</svg>
