<svg width="20" height="20" viewBox="0 0 20 20" fill="none" xmlns="http://www.w3.org/2000/svg">
<path d="M8.27417 2.04221C7.91666 1.6973 7.90761 1.12907 8.25394 0.773039C8.60028 0.417004 9.17085 0.407987 9.52836 0.752898L12.2258 3.35535C12.4011 3.52442 12.5 3.75703 12.5 4.00001C12.5 4.243 12.4011 4.4756 12.2258 4.64467L9.52835 7.2471C9.17085 7.59201 8.60027 7.58299 8.25394 7.22696C7.90761 6.87092 7.91666 6.30269 8.27417 5.95778L9.44885 4.8245C8.57143 4.90282 7.71437 5.16779 6.93756 5.60909C5.68308 6.32173 4.71642 7.44956 4.20408 8.79829C3.69175 10.147 3.66582 11.6322 4.13077 12.998C4.59573 14.3638 5.52245 15.5247 6.75129 16.2807C7.98013 17.0366 9.43415 17.3404 10.8629 17.1396C12.2916 16.9388 13.6056 16.246 14.5784 15.1806C15.5513 14.1152 16.1221 12.7439 16.1926 11.3028C16.2603 9.91777 15.8618 8.55168 15.0633 7.42185C14.7765 7.01593 14.873 6.45431 15.2789 6.16745C15.6848 5.88058 16.2464 5.9771 16.5333 6.38302C17.5636 7.84089 18.0779 9.60358 17.9904 11.3908C17.8995 13.2502 17.1629 15.0196 15.9076 16.3944C14.6523 17.7691 12.9569 18.663 11.1134 18.9221C9.26987 19.1812 7.39371 18.7892 5.80811 17.8138C4.22251 16.8383 3.02675 15.3404 2.42681 13.5781C1.82687 11.8158 1.86032 9.8994 2.52139 8.1591C3.18247 6.4188 4.42979 4.96353 6.04847 4.04399C7.05374 3.47292 8.16316 3.13068 9.29879 3.03074L8.27417 2.04221Z" fill="#222222"/>
</svg>
