<svg width="20" height="20" viewBox="0 0 20 20" fill="none" xmlns="http://www.w3.org/2000/svg">
<g clip-path="url(#clip0_156_3418)">
<path d="M6.36166 9.83234C6.89401 9.83234 7.33304 9.41528 7.36034 8.88363L7.70336 2.20456C7.75881 1.76526 8.06031 1.39644 8.47852 1.25346C9.46528 0.916092 10.5388 0.915157 11.5263 1.2528C11.9492 1.39738 12.251 1.77218 12.3021 2.21556L12.5807 8.87415C12.6031 9.4097 13.0438 9.83234 13.5798 9.83234L15.6676 9.83234H15.6678L15.7214 9.83233H15.7215C16.0251 9.83223 16.3026 9.83294 16.5201 9.85241C16.7278 9.87099 17.0633 9.91619 17.3388 10.1451C17.6658 10.417 17.8462 10.8268 17.8253 11.2519C17.8076 11.6102 17.6133 11.8879 17.4864 12.0531C17.3534 12.2262 17.1661 12.4307 16.9605 12.6537L16.9604 12.6538L16.9241 12.6932L16.924 12.6934L12.6075 17.3794L12.6074 17.3795C12.2724 17.7432 11.9881 18.0508 11.7363 18.2818L12.4123 19.0187L11.7363 18.2818C11.4677 18.5282 11.1804 18.7413 10.8258 18.8629L11.1338 19.7609L10.8258 18.8629C10.2928 19.0457 9.71399 19.0457 9.181 18.8629L8.85659 19.8088L9.18099 18.8629C8.8264 18.7413 8.5391 18.5282 8.2705 18.2818L7.59453 19.0187L8.27049 18.2818C8.01865 18.0508 7.73437 17.7432 7.39939 17.3795L7.39931 17.3794L3.08281 12.6934L3.08266 12.6932L3.04634 12.6538L3.04627 12.6537C2.84073 12.4307 2.65334 12.2262 2.52039 12.0531C2.39348 11.8879 2.19921 11.6102 2.18153 11.2519C2.16055 10.8268 2.34095 10.417 2.66801 10.1451C2.94345 9.91619 3.27897 9.87099 3.48665 9.85241C3.7042 9.83294 3.98171 9.83223 4.28532 9.83233H4.28543L4.339 9.83234H4.33921H6.36166Z" stroke="#222222" stroke-width="2" stroke-linejoin="round"/>
</g>
<defs>
<clipPath id="clip0_156_3418">
<rect width="20" height="20" fill="white"/>
</clipPath>
</defs>
</svg>
