<svg width="20" height="20" viewBox="0 0 20 20" fill="none" xmlns="http://www.w3.org/2000/svg">
<path fill-rule="evenodd" clip-rule="evenodd" d="M3 9C3 5.68629 5.68629 3 9 3C12.3137 3 15 5.68629 15 9C15 12.3137 12.3137 15 9 15C5.68629 15 3 12.3137 3 9ZM9 1C4.58172 1 1 4.58172 1 9C1 13.4183 4.58172 17 9 17C10.8487 17 12.551 16.3729 13.9056 15.3199L17.2898 18.704C17.6803 19.0946 18.3135 19.0946 18.704 18.704C19.0946 18.3135 19.0946 17.6803 18.704 17.2898L15.3199 13.9056C16.3729 12.551 17 10.8487 17 9C17 4.58172 13.4183 1 9 1Z" fill="#222222"/>
</svg>
