<svg width="20" height="20" viewBox="0 0 20 20" fill="none" xmlns="http://www.w3.org/2000/svg">
<mask id="path-1-outside-1_520_23749" maskUnits="userSpaceOnUse" x="1.37744" y="0.00012207" width="17" height="20" fill="black">
<rect fill="white" x="1.37744" y="0.00012207" width="17" height="20"/>
<path fill-rule="evenodd" clip-rule="evenodd" d="M8.31457 1.99125C8.49774 1.74699 8.47678 1.39887 8.25333 1.17857C8.00956 0.938233 7.61712 0.941017 7.37678 1.18478L2.55591 5.38583L2.50139 5.44904C2.31964 5.69075 2.33781 6.03494 2.55591 6.25616L7.37678 10.4572L7.43986 10.5131C7.68149 10.6997 8.02988 10.6837 8.25333 10.4634L8.30925 10.4003C8.49587 10.1587 8.47985 9.81033 8.25955 9.58687L4.47799 6.44082H17.0029L17.0806 6.43599C17.3862 6.39774 17.6227 6.13698 17.6227 5.82099C17.6227 5.47867 17.3452 5.20117 17.0029 5.20117L4.47799 5.20117L8.25955 2.05511L8.31457 1.99125ZM11.6856 10.3494C11.5024 10.1051 11.5233 9.757 11.7468 9.5367C11.9906 9.29636 12.383 9.29915 12.6233 9.54291L17.4442 13.744L17.4987 13.8072C17.6805 14.0489 17.6623 14.3931 17.4442 14.6143L12.6233 18.8153L12.5603 18.8713C12.3186 19.0579 11.9703 19.0419 11.7468 18.8215L11.6909 18.7585C11.5043 18.5168 11.5203 18.1685 11.7406 17.945L15.5221 14.7989H2.99727L2.91952 14.7941C2.6139 14.7559 2.37744 14.4951 2.37744 14.1791C2.37744 13.8368 2.65495 13.5593 2.99727 13.5593L15.5221 13.5593L11.7406 10.4132L11.6856 10.3494Z"/>
</mask>
<path fill-rule="evenodd" clip-rule="evenodd" d="M8.31457 1.99125C8.49774 1.74699 8.47678 1.39887 8.25333 1.17857C8.00956 0.938233 7.61712 0.941017 7.37678 1.18478L2.55591 5.38583L2.50139 5.44904C2.31964 5.69075 2.33781 6.03494 2.55591 6.25616L7.37678 10.4572L7.43986 10.5131C7.68149 10.6997 8.02988 10.6837 8.25333 10.4634L8.30925 10.4003C8.49587 10.1587 8.47985 9.81033 8.25955 9.58687L4.47799 6.44082H17.0029L17.0806 6.43599C17.3862 6.39774 17.6227 6.13698 17.6227 5.82099C17.6227 5.47867 17.3452 5.20117 17.0029 5.20117L4.47799 5.20117L8.25955 2.05511L8.31457 1.99125ZM11.6856 10.3494C11.5024 10.1051 11.5233 9.757 11.7468 9.5367C11.9906 9.29636 12.383 9.29915 12.6233 9.54291L17.4442 13.744L17.4987 13.8072C17.6805 14.0489 17.6623 14.3931 17.4442 14.6143L12.6233 18.8153L12.5603 18.8713C12.3186 19.0579 11.9703 19.0419 11.7468 18.8215L11.6909 18.7585C11.5043 18.5168 11.5203 18.1685 11.7406 17.945L15.5221 14.7989H2.99727L2.91952 14.7941C2.6139 14.7559 2.37744 14.4951 2.37744 14.1791C2.37744 13.8368 2.65495 13.5593 2.99727 13.5593L15.5221 13.5593L11.7406 10.4132L11.6856 10.3494Z" fill="#222222"/>
<path d="M8.25333 1.17857L8.46395 0.964937L8.46395 0.964936L8.25333 1.17857ZM8.31457 1.99125L8.54185 2.18706L8.54848 2.17936L8.55457 2.17124L8.31457 1.99125ZM7.37678 1.18478L7.57388 1.41096L7.58244 1.4035L7.59042 1.39541L7.37678 1.18478ZM2.55591 5.38583L2.35882 5.15966L2.34271 5.1737L2.32875 5.18988L2.55591 5.38583ZM2.50139 5.44904L2.27422 5.25309L2.26765 5.26071L2.26161 5.26874L2.50139 5.44904ZM2.55591 6.25616L2.34228 6.46678L2.35026 6.47487L2.35882 6.48233L2.55591 6.25616ZM7.37678 10.4572L7.5758 10.2327L7.57388 10.231L7.37678 10.4572ZM7.43986 10.5131L7.24085 10.7376L7.24845 10.7443L7.25648 10.7506L7.43986 10.5131ZM8.25333 10.4634L8.46395 10.6771L8.47113 10.67L8.47782 10.6624L8.25333 10.4634ZM8.30925 10.4003L8.53374 10.5993L8.54047 10.5918L8.54668 10.5837L8.30925 10.4003ZM8.25955 9.58687L8.47318 9.37625L8.46279 9.36571L8.45141 9.35625L8.25955 9.58687ZM4.47799 6.44082V6.14082H3.64831L4.28612 6.67144L4.47799 6.44082ZM17.0029 6.44082V6.74082H17.0122L17.0215 6.74024L17.0029 6.44082ZM17.0806 6.43599L17.0992 6.73541L17.1086 6.73483L17.1179 6.73367L17.0806 6.43599ZM17.0029 5.20117V5.50117V5.20117ZM4.47799 5.20117L4.28612 4.97054L3.64831 5.50117H4.47799V5.20117ZM8.25955 2.05511L8.45141 2.28574L8.47057 2.2698L8.48683 2.25092L8.25955 2.05511ZM11.7468 9.5367L11.9574 9.75033L11.9574 9.75033L11.7468 9.5367ZM11.6856 10.3494L11.4456 10.5294L11.4517 10.5375L11.4583 10.5452L11.6856 10.3494ZM12.6233 9.54291L12.4097 9.75354L12.4177 9.76163L12.4263 9.76909L12.6233 9.54291ZM17.4442 13.744L17.6714 13.548L17.6574 13.5318L17.6413 13.5178L17.4442 13.744ZM17.4987 13.8072L17.7385 13.6269L17.7325 13.6188L17.7259 13.6112L17.4987 13.8072ZM17.4442 14.6143L17.6413 14.8405L17.6499 14.833L17.6579 14.8249L17.4442 14.6143ZM12.6233 18.8153L12.4262 18.5891L12.4243 18.5908L12.6233 18.8153ZM12.5603 18.8713L12.7436 19.1087L12.7517 19.1025L12.7593 19.0957L12.5603 18.8713ZM11.7468 18.8215L11.5223 19.0206L11.529 19.0281L11.5362 19.0352L11.7468 18.8215ZM11.6909 18.7585L11.4535 18.9418L11.4597 18.9499L11.4664 18.9575L11.6909 18.7585ZM11.7406 17.945L11.5487 17.7144L11.5373 17.7238L11.527 17.7344L11.7406 17.945ZM15.5221 14.7989L15.714 15.0296L16.3518 14.4989H15.5221V14.7989ZM2.99727 14.7989L2.97867 15.0984L2.98796 15.0989H2.99727V14.7989ZM2.91952 14.7941L2.88227 15.0918L2.89157 15.093L2.90092 15.0935L2.91952 14.7941ZM2.99727 13.5593V13.8593H2.99727L2.99727 13.5593ZM15.5221 13.5593V13.8593H16.3518L15.714 13.3287L15.5221 13.5593ZM11.7406 10.4132L11.5133 10.609L11.5296 10.6279L11.5487 10.6439L11.7406 10.4132ZM8.04271 1.3922C8.15783 1.5057 8.1689 1.68546 8.07456 1.81126L8.55457 2.17124C8.82658 1.80853 8.79573 1.29205 8.46395 0.964937L8.04271 1.3922ZM7.59042 1.39541C7.71443 1.26962 7.91692 1.26819 8.04271 1.3922L8.46395 0.964936C8.1022 0.608279 7.51981 0.612409 7.16315 0.974162L7.59042 1.39541ZM2.75301 5.612L7.57388 1.41096L7.17969 0.958611L2.35882 5.15966L2.75301 5.612ZM2.72855 5.64499L2.78308 5.58178L2.32875 5.18988L2.27422 5.25309L2.72855 5.64499ZM2.76954 6.04553C2.65717 5.93155 2.64755 5.75383 2.74117 5.62934L2.26161 5.26874C1.99172 5.62767 2.01845 6.13833 2.34228 6.46678L2.76954 6.04553ZM7.57388 10.231L2.75301 6.02998L2.35882 6.48233L7.17969 10.6834L7.57388 10.231ZM7.63888 10.2886L7.5758 10.2327L7.17777 10.6817L7.24085 10.7376L7.63888 10.2886ZM8.04271 10.2498C7.92758 10.3633 7.74769 10.3718 7.62324 10.2757L7.25648 10.7506C7.6153 11.0277 8.13217 11.0042 8.46395 10.6771L8.04271 10.2498ZM8.08476 10.2013L8.02884 10.2644L8.47782 10.6624L8.53374 10.5993L8.08476 10.2013ZM8.04591 9.7975C8.15942 9.91262 8.16794 10.0925 8.07182 10.217L8.54668 10.5837C8.82381 10.2249 8.80029 9.70803 8.47318 9.37625L8.04591 9.7975ZM4.28612 6.67144L8.06768 9.8175L8.45141 9.35625L4.66986 6.2102L4.28612 6.67144ZM17.0029 6.14082H4.47799V6.74082H17.0029V6.14082ZM17.062 6.13657L16.9843 6.1414L17.0215 6.74024L17.0992 6.73541L17.062 6.13657ZM17.3227 5.82099C17.3227 5.98381 17.2008 6.11861 17.0434 6.13831L17.1179 6.73367C17.5717 6.67687 17.9227 6.29015 17.9227 5.82099H17.3227ZM17.0029 5.50117C17.1795 5.50117 17.3227 5.64436 17.3227 5.82099H17.9227C17.9227 5.31299 17.5109 4.90117 17.0029 4.90117V5.50117ZM4.47799 5.50117L17.0029 5.50117V4.90117L4.47799 4.90117V5.50117ZM8.06768 1.82449L4.28612 4.97054L4.66986 5.43179L8.45141 2.28574L8.06768 1.82449ZM8.08728 1.79544L8.03226 1.8593L8.48683 2.25092L8.54185 2.18706L8.08728 1.79544ZM11.5362 9.32307C11.2044 9.65018 11.1735 10.1667 11.4456 10.5294L11.9256 10.1694C11.8312 10.0436 11.8423 9.86383 11.9574 9.75033L11.5362 9.32307ZM12.837 9.33229C12.4803 8.97054 11.8979 8.96641 11.5362 9.32307L11.9574 9.75033C12.0832 9.62632 12.2857 9.62775 12.4097 9.75354L12.837 9.33229ZM17.6413 13.5178L12.8204 9.31674L12.4263 9.76909L17.2471 13.9701L17.6413 13.5178ZM17.7259 13.6112L17.6714 13.548L17.2171 13.9399L17.2716 14.0031L17.7259 13.6112ZM17.6579 14.8249C17.9817 14.4965 18.0084 13.9858 17.7385 13.6269L17.259 13.9875C17.3526 14.112 17.343 14.2897 17.2306 14.4037L17.6579 14.8249ZM12.8204 19.0415L17.6413 14.8405L17.2471 14.3881L12.4263 18.5892L12.8204 19.0415ZM12.7593 19.0957L12.8224 19.0398L12.4243 18.5908L12.3613 18.6468L12.7593 19.0957ZM11.5362 19.0352C11.868 19.3623 12.3848 19.3858 12.7436 19.1087L12.3769 18.6338C12.2524 18.7299 12.0725 18.7214 11.9574 18.6079L11.5362 19.0352ZM11.4664 18.9575L11.5223 19.0206L11.9713 18.6225L11.9154 18.5595L11.4664 18.9575ZM11.527 17.7344C11.1998 18.0662 11.1763 18.583 11.4535 18.9418L11.9283 18.5751C11.8322 18.4506 11.8407 18.2708 11.9542 18.1556L11.527 17.7344ZM15.3303 14.5683L11.5487 17.7144L11.9325 18.1756L15.714 15.0296L15.3303 14.5683ZM2.99727 15.0989H15.5221V14.4989H2.99727V15.0989ZM2.90092 15.0935L2.97867 15.0984L3.01587 14.4995L2.93812 14.4947L2.90092 15.0935ZM2.07744 14.1791C2.07744 14.6483 2.42841 15.035 2.88227 15.0918L2.95677 14.4964C2.79938 14.4767 2.67744 14.3419 2.67744 14.1791H2.07744ZM2.99727 13.2593C2.48926 13.2593 2.07744 13.6711 2.07744 14.1791H2.67744C2.67744 14.0025 2.82063 13.8593 2.99727 13.8593V13.2593ZM15.5221 13.2593L2.99727 13.2593L2.99727 13.8593L15.5221 13.8593V13.2593ZM11.5487 10.6439L15.3303 13.7899L15.714 13.3287L11.9325 10.1826L11.5487 10.6439ZM11.4583 10.5452L11.5133 10.609L11.9679 10.2174L11.9129 10.1536L11.4583 10.5452Z" fill="#222222" mask="url(#path-1-outside-1_520_23749)"/>
</svg>
