<svg width="20" height="20" viewBox="0 0 20 20" fill="none" xmlns="http://www.w3.org/2000/svg">
<path d="M14 5C14 7.20914 12.2091 9 10 9C7.79086 9 6 7.20914 6 5C6 2.79086 7.79086 1 10 1C12.2091 1 14 2.79086 14 5Z" stroke="#222222" stroke-width="2"/>
<path d="M3 16.5502C3 14.0372 5.03719 12 7.55019 12H12.4498C14.9628 12 17 14.0372 17 16.5502C17 17.4454 16.3334 18.2005 15.4451 18.3116L15.5691 19.3039L15.4451 18.3116L15.2858 18.3315C11.7756 18.7703 8.22442 18.7703 4.71423 18.3315L4.55492 18.3116L4.43089 19.3039L4.55492 18.3116C3.66661 18.2005 3 17.4454 3 16.5502Z" stroke="#222222" stroke-width="2"/>
</svg>
