<svg width="20" height="20" viewBox="0 0 20 20" fill="none" xmlns="http://www.w3.org/2000/svg">
<path d="M13.9725 11.3062C17.1944 11.3062 19.9998 12.4499 19.9998 15.025C19.9998 16.3825 19.4375 16.9842 18.2887 16.9842L13.4006 16.9842C12.926 16.9842 12.5908 16.5029 12.6845 16.0378C12.7503 15.7114 13.0242 15.4119 13.3571 15.4119C15.3307 15.4122 18.4083 15.4136 18.4083 15.4136C18.4083 15.4136 18.4275 15.1543 18.4275 15.025C18.4275 13.704 16.4027 12.8786 13.9725 12.8786C13.5601 12.8786 13.1594 12.9024 12.7783 12.9483C12.4855 12.9836 12.202 12.8444 12.0361 12.6005C11.7295 12.1499 11.891 11.4683 12.4317 11.3998C12.9269 11.337 13.4441 11.3062 13.9725 11.3062ZM6.11064 11.3062C9.33263 11.3062 12.138 12.4499 12.138 15.025C12.138 16.3825 11.5757 16.9842 10.4269 16.9842H1.79435C0.645554 16.9842 0.083252 16.3825 0.083252 15.025C0.083252 12.4499 2.88865 11.3062 6.11064 11.3062ZM6.11064 12.8786C3.68035 12.8786 1.65561 13.704 1.65561 15.025C1.65561 15.155 1.67308 15.4136 1.67308 15.4136H10.5464C10.5464 15.4136 10.5657 15.1543 10.5657 15.025C10.5657 13.704 8.54093 12.8786 6.11064 12.8786ZM13.9725 3.18237C15.9752 3.18237 17.5976 4.80481 17.5976 6.80754C17.5976 8.81028 15.9752 10.4327 13.9725 10.4327C11.9697 10.4327 10.3473 8.81028 10.3473 6.80754C10.3473 4.80481 11.9697 3.18237 13.9725 3.18237ZM6.11064 3.18237C8.11338 3.18237 9.73581 4.80481 9.73581 6.80754C9.73581 8.81028 8.11338 10.4327 6.11064 10.4327C4.1079 10.4327 2.48547 8.81028 2.48547 6.80754C2.48547 4.80481 4.1079 3.18237 6.11064 3.18237ZM13.9725 4.75474C12.8381 4.75474 11.9196 5.6732 11.9196 6.80754C11.9196 7.94189 12.8381 8.86035 13.9725 8.86035C15.1068 8.86035 16.0253 7.94189 16.0253 6.80754C16.0253 5.6732 15.1068 4.75474 13.9725 4.75474ZM6.11064 4.75474C4.9763 4.75474 4.05783 5.6732 4.05783 6.80754C4.05783 7.94189 4.9763 8.86035 6.11064 8.86035C7.24498 8.86035 8.16345 7.94189 8.16345 6.80754C8.16345 5.6732 7.24498 4.75474 6.11064 4.75474Z" fill="#222222"/>
</svg>
