<svg width="20" height="20" viewBox="0 0 20 20" fill="none" xmlns="http://www.w3.org/2000/svg">
<g clip-path="url(#clip0_156_3421)">
<path d="M5.78803 6.45662C6.03236 6.59153 6.32196 6.61818 6.58681 6.53015C6.85167 6.44211 7.06768 6.24739 7.18264 5.99306L8.6284 2.79432C9.1619 1.61397 10.8381 1.61397 11.3716 2.79432L12.8174 5.99306C12.9323 6.24739 13.1483 6.44211 13.4132 6.53014C13.678 6.61818 13.9676 6.59152 14.212 6.45662L16.7626 5.04829C17.9279 4.40486 19.2935 5.47974 18.9419 6.76363C18.939 6.77408 18.9363 6.78457 18.9338 6.79511L17.3526 13.4036C17.3333 13.4841 17.3241 13.5667 17.3252 13.6494L17.3506 15.5902V15.6158V16.1818C17.3506 16.7074 17.3499 17.0415 17.3292 17.2945C17.3095 17.5359 17.2768 17.6142 17.2615 17.6442L18.1525 18.0981L17.2615 17.6442C17.183 17.7981 17.0579 17.9233 16.9039 18.0017C16.8739 18.017 16.7956 18.0497 16.5543 18.0694C16.3013 18.0901 15.9672 18.0909 15.4416 18.0909H14.8756H14.8434H5.15661H4.56266C4.04045 18.0909 3.70873 18.0901 3.45743 18.0696C3.21786 18.0501 3.13994 18.0178 3.1099 18.0025C2.9565 17.9248 2.83151 17.8007 2.75265 17.6479C2.7372 17.618 2.70426 17.5403 2.68298 17.3009C2.66067 17.0497 2.65746 16.718 2.65362 16.1958L2.64933 15.6121L2.64933 15.5902L2.67478 13.6494C2.67586 13.5667 2.66667 13.4841 2.64741 13.4036L1.0662 6.79511C1.06368 6.78457 1.06099 6.77407 1.05813 6.76362C0.706456 5.47974 2.07207 4.40486 3.23741 5.0483L5.78803 6.45662Z" stroke="#222222" stroke-width="2" stroke-linecap="round" stroke-linejoin="round"/>
<line x1="3" y1="13" x2="17" y2="13" stroke="#222222" stroke-width="2"/>
</g>
<defs>
<clipPath id="clip0_156_3421">
<rect width="20" height="20" fill="white"/>
</clipPath>
</defs>
</svg>
