<svg width="20" height="20" viewBox="0 0 20 20" fill="none" xmlns="http://www.w3.org/2000/svg">
<path fill-rule="evenodd" clip-rule="evenodd" d="M16.2381 3.6641C14.5616 1.94698 12.3318 1.00087 9.956 1C5.06046 1 1.07623 5.075 1.07452 10.0839C1.07367 11.6851 1.48291 13.2481 2.26009 14.6254L1 19.3333L5.70818 18.0701C7.0053 18.7941 8.46596 19.1752 9.95218 19.1757H9.956C14.8507 19.1757 18.8354 15.1002 18.8371 10.0913C18.8379 7.66376 17.9151 5.38166 16.2381 3.66454V3.6641ZM9.956 17.6415H9.95303C8.62862 17.6411 7.32939 17.2769 6.19579 16.5891L5.92622 16.4253L3.13223 17.175L3.87788 14.3884L3.70243 14.1027C2.96359 12.9005 2.57308 11.5109 2.57393 10.0844C2.57564 5.92136 5.88703 2.53417 9.95902 2.53417C11.9307 2.53504 13.784 3.32129 15.1778 4.74874C16.5716 6.17575 17.3385 8.07322 17.3377 10.0904C17.3359 14.2539 14.0246 17.6411 9.956 17.6411V17.6415ZM14.005 11.9866C13.7831 11.8729 12.6921 11.324 12.4885 11.2483C12.285 11.1724 12.1372 11.1346 11.9894 11.3619C11.8417 11.5893 11.4163 12.1007 11.2868 12.2519C11.1573 12.4034 11.0279 12.4222 10.806 12.3085C10.5842 12.1948 9.86914 11.9552 9.02129 11.182C8.36166 10.58 7.91618 9.83693 7.78676 9.60952C7.6573 9.38217 7.77314 9.25932 7.88383 9.1465C7.98347 9.04458 8.1057 8.88123 8.21683 8.7488C8.32802 8.61637 8.36463 8.52144 8.43871 8.37026C8.51283 8.21867 8.47577 8.08629 8.42043 7.97256C8.36503 7.85888 7.92133 6.74156 7.73608 6.28725C7.55592 5.84469 7.37284 5.90481 7.23698 5.8974C7.10752 5.89086 6.95977 5.88956 6.81157 5.88956C6.66337 5.88956 6.42317 5.94619 6.21963 6.17357C6.01609 6.40093 5.44288 6.95021 5.44288 8.06708C5.44288 9.18395 6.23796 10.2638 6.34909 10.4154C6.46023 10.567 7.91405 12.8595 10.14 13.8431C10.6693 14.077 11.0828 14.2168 11.4052 14.3214C11.9367 14.4943 12.4204 14.4699 12.8028 14.4115C13.2291 14.3462 14.1157 13.8623 14.3005 13.3321C14.4853 12.802 14.4853 12.3472 14.43 12.2527C14.3746 12.1582 14.2264 12.1011 14.0046 11.9875L14.005 11.9866Z" fill="#25D366"/>
</svg>
