<svg width="24" height="24" viewBox="0 0 24 24" fill="none" xmlns="http://www.w3.org/2000/svg">
<path d="M16.5 6.50005C16.5 8.98528 14.4853 11 12 11C9.5147 11 7.5 8.98528 7.5 6.50005C7.5 4.01482 9.5147 2.00012 12 2.00012C14.4853 2.00012 16.5 4.01482 16.5 6.50005Z" stroke="#222222" stroke-width="2"/>
<path d="M4.19995 19.2053C4.19995 16.3859 6.4856 14.1002 9.30508 14.1002H14.6947C17.5142 14.1002 19.7999 16.3859 19.7999 19.2053C19.7999 20.2405 19.0291 21.1137 18.0019 21.2421L17.8266 21.264C13.9572 21.7476 10.0426 21.7476 6.17321 21.264L5.99793 21.2421C4.97077 21.1137 4.19995 20.2405 4.19995 19.2053Z" stroke="#222222" stroke-width="2"/>
</svg>
