<svg width="24" height="24" viewBox="0 0 24 24" fill="none" xmlns="http://www.w3.org/2000/svg">
<path fill-rule="evenodd" clip-rule="evenodd" d="M16.0651 4.69409C15.7746 4.59971 15.3835 4.58828 14.1618 4.58828H7.36765C6.48757 4.58828 5.88324 4.589 5.41475 4.62728C4.95707 4.66467 4.71122 4.73324 4.53329 4.8239C4.12652 5.03116 3.79582 5.36187 3.58856 5.76863C3.51276 5.91739 3.45241 6.11363 3.4128 6.44145C3.49463 6.44119 3.58156 6.44119 3.67412 6.44119H16.5706C16.9157 6.44119 17.2321 6.44119 17.5234 6.44304C17.5077 6.29173 17.4852 6.18103 17.453 6.08203C17.2392 5.4239 16.7232 4.90792 16.0651 4.69409ZM3.35294 15.3353L3.35294 8.58651C3.35295 8.4764 3.353 8.38059 3.35348 8.29467C3.44682 8.29415 3.5518 8.29413 3.67412 8.29413H16.5706C17.6389 8.29413 18.3287 8.29557 18.8537 8.33846C19.3571 8.37959 19.5437 8.44941 19.6353 8.49609C19.984 8.67374 20.2675 8.9572 20.4451 9.30585C20.4918 9.39747 20.5616 9.5841 20.6027 10.0875C20.6456 10.6125 20.6471 11.3023 20.6471 12.3706V15.3353C20.6471 16.4036 20.6456 17.0934 20.6027 17.6184C20.5616 18.1218 20.4918 18.3084 20.4451 18.4001C20.2675 18.7487 19.984 19.0322 19.6353 19.2098C19.5437 19.2565 19.3571 19.3263 18.8537 19.3674C18.3287 19.4103 17.6389 19.4118 16.5706 19.4118H7.42941C6.36109 19.4118 5.67129 19.4103 5.14628 19.3674C4.64291 19.3263 4.45628 19.2565 4.36467 19.2098C4.01601 19.0322 3.73255 18.7487 3.5549 18.4001C3.50822 18.3084 3.4384 18.1218 3.39728 17.6184C3.35438 17.0934 3.35294 16.4036 3.35294 15.3353ZM1.5 8.56418V15.3353C1.5 17.4108 1.5 18.4485 1.90392 19.2413C2.25921 19.9386 2.82614 20.5055 3.52345 20.8608C4.31618 21.2647 5.35392 21.2647 7.42941 21.2647H16.5706C18.6461 21.2647 19.6838 21.2647 20.4766 20.8608C21.1739 20.5055 21.7408 19.9386 22.0961 19.2413C22.5 18.4485 22.5 17.4108 22.5 15.3353V12.3706C22.5 10.2951 22.5 9.25737 22.0961 8.46463C21.7408 7.76733 21.1739 7.2004 20.4766 6.8451C20.167 6.68736 19.82 6.59122 19.3884 6.53262C19.3641 6.14967 19.3149 5.81595 19.2153 5.50943C18.8181 4.28721 17.8599 3.32896 16.6377 2.93184C16.0299 2.73436 15.3152 2.73475 14.3218 2.73528L7.32884 2.73534C6.49702 2.73533 5.81673 2.73532 5.26386 2.78049C4.69159 2.82725 4.17475 2.92698 3.69207 3.17292C2.93665 3.55782 2.32248 4.17199 1.93758 4.92741C1.69164 5.41009 1.59191 5.92693 1.54515 6.4992C1.49998 7.05207 1.49999 7.73237 1.5 8.56418ZM16.0147 12.6177C15.503 12.6177 15.0882 13.0325 15.0882 13.5442C15.0882 14.0559 15.503 14.4707 16.0147 14.4707H17.25C17.7617 14.4707 18.1765 14.0559 18.1765 13.5442C18.1765 13.0325 17.7617 12.6177 17.25 12.6177H16.0147Z" fill="#222222"/>
<path fill-rule="evenodd" clip-rule="evenodd" d="M15.4575 4.70557C15.1737 4.69107 14.7731 4.68819 14.1617 4.68819H7.36755C6.48579 4.68819 5.88626 4.68899 5.42279 4.72686C4.97126 4.76375 4.74005 4.83064 4.57859 4.91291C4.19064 5.11058 3.87523 5.42599 3.67756 5.81394C3.61726 5.9323 3.56516 6.08827 3.52713 6.34114C3.57451 6.3411 3.62346 6.3411 3.67402 6.3411H16.5705C16.8711 6.3411 17.1502 6.3411 17.41 6.34233C17.3964 6.25136 17.3792 6.1787 17.3578 6.11284C17.1539 5.48516 16.6618 4.99305 16.0341 4.7891C15.9011 4.7459 15.7408 4.72005 15.4575 4.70557ZM17.5111 6.34288C17.4965 6.24039 17.4776 6.15773 17.4529 6.08194C17.2391 5.42381 16.7231 4.90783 16.065 4.694C15.7745 4.59962 15.3834 4.58819 14.1617 4.58819H7.36755C6.48748 4.58819 5.88314 4.58891 5.41465 4.62719C4.95697 4.66458 4.71112 4.73315 4.53319 4.82381C4.12643 5.03107 3.79572 5.36177 3.58846 5.76854C3.52071 5.90151 3.4653 6.07242 3.42601 6.34132C3.42135 6.37325 3.41691 6.40657 3.4127 6.44136C3.44547 6.44126 3.47904 6.44119 3.51347 6.44116C3.56504 6.4411 3.61852 6.4411 3.67402 6.4411H16.5705C16.8762 6.4411 17.1595 6.4411 17.4227 6.44239C17.4566 6.44256 17.4901 6.44274 17.5233 6.44295C17.5197 6.40749 17.5156 6.37425 17.5111 6.34288ZM3.45301 8.3942C3.45287 8.45325 3.45285 8.51693 3.45284 8.58642L3.45284 15.3352C3.45284 16.4053 3.45436 17.0902 3.49685 17.6102C3.53748 18.1075 3.60563 18.2794 3.6439 18.3546C3.81196 18.6844 4.08013 18.9526 4.40997 19.1206C4.48508 19.1589 4.65704 19.2271 5.15433 19.2677C5.6743 19.3102 6.35928 19.3117 7.42931 19.3117H16.5705C17.6405 19.3117 18.3255 19.3102 18.8455 19.2677C19.3428 19.2271 19.5147 19.1589 19.5898 19.1206C19.9197 18.9526 20.1878 18.6844 20.3559 18.3546C20.3942 18.2794 20.4623 18.1075 20.503 17.6102C20.5454 17.0902 20.547 16.4053 20.547 15.3352V12.3705C20.547 11.3005 20.5454 10.6155 20.503 10.0955C20.4623 9.59824 20.3942 9.42628 20.3559 9.35116C20.1878 9.02132 19.9197 8.75316 19.5898 8.5851C19.5147 8.54682 19.3428 8.47867 18.8455 8.43804C18.3255 8.39556 17.6405 8.39404 16.5705 8.39404H3.67402C3.59321 8.39404 3.52012 8.39405 3.45301 8.3942ZM3.35338 8.29458C3.3529 8.3805 3.35285 8.47631 3.35284 8.58642L3.35284 15.3352C3.35284 16.4035 3.35428 17.0933 3.39718 17.6183C3.43831 18.1217 3.50812 18.3083 3.5548 18.4C3.73245 18.7486 4.01591 19.0321 4.36457 19.2097C4.45618 19.2564 4.64281 19.3262 5.14619 19.3673C5.67119 19.4102 6.36099 19.4117 7.42931 19.4117H16.5705C17.6388 19.4117 18.3286 19.4102 18.8536 19.3673C19.357 19.3262 19.5436 19.2564 19.6352 19.2097C19.9839 19.0321 20.2674 18.7486 20.445 18.4C20.4917 18.3083 20.5615 18.1217 20.6026 17.6183C20.6455 17.0933 20.647 16.4035 20.647 15.3352V12.3705C20.647 11.3022 20.6455 10.6124 20.6026 10.0874C20.5615 9.58401 20.4917 9.39738 20.445 9.30576C20.2674 8.95711 19.9839 8.67365 19.6352 8.496C19.5436 8.44932 19.357 8.3795 18.8536 8.33837C18.3286 8.29548 17.6388 8.29404 16.5705 8.29404H3.67402C3.5517 8.29404 3.44672 8.29406 3.35338 8.29458ZM1.3999 15.3399L1.3999 8.56002C1.39989 7.73153 1.39988 7.0479 1.44539 6.49096C1.49265 5.91249 1.59407 5.38103 1.84838 4.88192C2.24287 4.10769 2.87234 3.47822 3.64657 3.08373C4.14569 2.82942 4.67715 2.728 5.25562 2.68074C5.81256 2.63523 6.49618 2.63524 7.32468 2.63525L14.3371 2.63519C15.3172 2.63465 16.0456 2.63425 16.6685 2.83664C17.9211 3.24366 18.9033 4.22577 19.3103 5.47844C19.4062 5.77357 19.4562 6.09061 19.4826 6.44499C19.8851 6.50552 20.2194 6.6018 20.5219 6.75591C21.238 7.1208 21.8202 7.70302 22.1851 8.41915C22.3954 8.83196 22.4981 9.3042 22.5491 9.92835C22.5999 10.5504 22.5999 11.332 22.5999 12.3657V15.34C22.5999 16.3737 22.5999 17.1553 22.5491 17.7774C22.4981 18.4015 22.3954 18.8738 22.1851 19.2866C21.8202 20.0027 21.238 20.5849 20.5219 20.9498C20.109 21.1601 19.6368 21.2628 19.0126 21.3138C18.3906 21.3646 17.609 21.3646 16.5753 21.3646H7.42455C6.39082 21.3646 5.60918 21.3646 4.98715 21.3138C4.36301 21.2628 3.89076 21.1601 3.47795 20.9498C2.76183 20.5849 2.1796 20.0027 1.81472 19.2866C1.60438 18.8738 1.50172 18.4015 1.45072 17.7774C1.3999 17.1553 1.3999 16.3737 1.3999 15.3399ZM19.3883 6.53253C19.8199 6.59113 20.1669 6.68727 20.4765 6.84501C21.1738 7.20031 21.7407 7.76724 22.096 8.46454C22.4999 9.25728 22.4999 10.295 22.4999 12.3705V15.3352C22.4999 17.4107 22.4999 18.4484 22.096 19.2412C21.7407 19.9385 21.1738 20.5054 20.4765 20.8607C19.6837 21.2646 18.646 21.2646 16.5705 21.2646H7.42931C5.35383 21.2646 4.31608 21.2646 3.52335 20.8607C2.82604 20.5054 2.25912 19.9385 1.90382 19.2412C1.4999 18.4484 1.4999 17.4107 1.4999 15.3352V8.56409C1.49989 7.73228 1.49988 7.05197 1.54505 6.49911C1.59181 5.92684 1.69154 5.41 1.93748 4.92732C2.32238 4.1719 2.93656 3.55773 3.69197 3.17283C4.17465 2.92689 4.6915 2.82716 5.26376 2.7804C5.81663 2.73523 6.49692 2.73524 7.32874 2.73525L14.3217 2.73519C15.3151 2.73466 16.0298 2.73427 16.6376 2.93175C17.8598 3.32887 18.818 4.28712 19.2152 5.50934C19.3148 5.81586 19.364 6.14958 19.3883 6.53253ZM14.9881 13.5441C14.9881 12.9772 15.4477 12.5176 16.0146 12.5176H17.2499C17.8168 12.5176 18.2764 12.9772 18.2764 13.5441C18.2764 14.111 17.8168 14.5706 17.2499 14.5706H16.0146C15.4477 14.5706 14.9881 14.111 14.9881 13.5441ZM15.0881 13.5441C15.0881 13.0324 15.5029 12.6176 16.0146 12.6176H17.2499C17.7616 12.6176 18.1764 13.0324 18.1764 13.5441C18.1764 14.0558 17.7616 14.4706 17.2499 14.4706H16.0146C15.5029 14.4706 15.0881 14.0558 15.0881 13.5441Z" fill="#222222"/>
</svg>
