<svg width="24" height="24" viewBox="0 0 24 24" fill="none" xmlns="http://www.w3.org/2000/svg">
<path fill-rule="evenodd" clip-rule="evenodd" d="M9.02579 7.12625C8.63526 6.73573 8.00209 6.73573 7.61157 7.12625C7.22104 7.51678 7.22104 8.14994 7.61157 8.54046L11.0711 12L7.61157 15.4595C7.22104 15.8501 7.22104 16.4832 7.61157 16.8737C8.00209 17.2643 8.63526 17.2643 9.02579 16.8737L12.4853 13.4142L15.9449 16.8737C16.3354 17.2643 16.9686 17.2643 17.3591 16.8737C17.7496 16.4832 17.7496 15.8501 17.3591 15.4595L13.8996 12L17.3591 8.54046C17.7496 8.14994 17.7496 7.51678 17.3591 7.12626C16.9686 6.73573 16.3354 6.73573 15.9449 7.12626L12.4853 10.5858L9.02579 7.12625Z" fill="#222222"/>
</svg>
