<svg width="24" height="24" viewBox="0 0 24 24" fill="none" xmlns="http://www.w3.org/2000/svg">
<path d="M21.5 12C21.5 6.75369 17.2463 2.5 12 2.5C6.75369 2.5 2.5 6.75369 2.5 12C2.5 16.7413 5.97349 20.6717 10.5157 21.3851V14.7467H8.10301V12H10.5157V9.90655C10.5157 7.52588 11.9345 6.20996 14.1041 6.20996C15.1435 6.20996 16.231 6.39565 16.231 6.39565V8.73358H15.0326C13.853 8.73358 13.4843 9.46569 13.4843 10.2178V12H16.1188L15.6979 14.7467H13.4843V21.3851C18.0265 20.673 21.5 16.7427 21.5 12Z" fill="#1977F3"/>
<path d="M15.698 14.7467L16.1188 12H13.4843V10.2178C13.4843 9.46703 13.8517 8.73359 15.0326 8.73359H16.231V6.39566C16.231 6.39566 15.1435 6.20996 14.1042 6.20996C11.9346 6.20996 10.5158 7.52454 10.5158 9.90656V12H8.10303V14.7467H10.5158V21.3851C10.9994 21.4613 11.495 21.5 12 21.5C12.505 21.5 13.0007 21.4599 13.4843 21.3851V14.7467H15.698Z" fill="#FEFEFE"/>
</svg>
