<svg width="24" height="24" viewBox="0 0 24 24" fill="none" xmlns="http://www.w3.org/2000/svg">
<path fill-rule="evenodd" clip-rule="evenodd" d="M8.84761 18.1116C8.49594 17.9821 8.10087 18.0817 7.85261 18.3624C7.11421 19.1974 5.86465 19.7041 4.06683 19.844C4.89325 18.2083 5.33346 16.9608 5.38109 16.0447C5.39219 15.8314 5.3278 15.6209 5.19924 15.4504C4.30209 14.2599 3.81813 12.8585 3.81813 11.3909C3.81813 7.3833 7.42754 4.11818 12 4.11818C16.5724 4.11818 20.1818 7.3833 20.1818 11.3909C20.1818 15.3985 16.5724 18.6636 12 18.6636C10.8979 18.6636 9.83324 18.4743 8.84761 18.1116ZM2.77789 21.5253C3.00165 21.6437 3.25239 21.702 3.50547 21.6943C5.7992 21.6245 7.56785 21.0738 8.77605 20.0053C9.80219 20.3195 10.8872 20.4818 12 20.4818C17.5381 20.4818 22 16.4456 22 11.3909C22 6.33623 17.5381 2.3 12 2.3C6.46177 2.3 1.99995 6.33623 1.99995 11.3909C1.99995 13.1362 2.53733 14.8076 3.52985 16.2436C3.40237 16.958 2.95128 18.0777 2.17081 19.5518C1.7935 20.2644 2.0653 21.1479 2.77789 21.5253ZM12 16.7248C12.6025 16.7248 13.0909 16.2363 13.0909 15.6339C13.0909 15.0314 12.6025 14.5429 12 14.5429C11.3975 14.5429 10.909 15.0314 10.909 15.6339C10.909 16.2363 11.3975 16.7248 12 16.7248ZM10.9715 8.9514C11.0859 8.50683 11.4905 8.17935 11.9694 8.17935C12.5384 8.17935 12.9997 8.64064 12.9997 9.20965C12.9997 9.65067 12.8378 9.84249 12.4097 10.242L12.3416 10.3053C11.9001 10.7144 11.2326 11.3329 11.0694 12.475C10.9984 12.9721 11.3438 13.4325 11.8408 13.5035C12.3378 13.5745 12.7983 13.2292 12.8693 12.7322C12.94 12.2377 13.1787 12.0114 13.6503 11.5712C14.1313 11.1223 14.8178 10.4656 14.8178 9.20966C14.8179 7.63647 13.5425 6.36117 11.9694 6.36117C10.6408 6.36117 9.52683 7.26983 9.21067 8.49821C9.08552 8.98444 9.37824 9.48005 9.86447 9.6052C10.3507 9.73035 10.8463 9.43763 10.9715 8.9514Z" fill="#222222"/>
<path fill-rule="evenodd" clip-rule="evenodd" d="M1.94995 11.3909C1.94995 6.30417 6.43883 2.25 12 2.25C17.5611 2.25 22.05 6.30417 22.05 11.3909C22.05 16.4776 17.5611 20.5318 12 20.5318C10.892 20.5318 9.81122 20.3716 8.78815 20.0612C7.56847 21.1282 5.79385 21.6747 3.50699 21.7443C3.24524 21.7522 2.98592 21.692 2.75449 21.5695C2.01749 21.1792 1.73639 20.2654 2.12662 19.5284C2.89938 18.0689 3.34609 16.9621 3.47696 16.2549C2.48636 14.8147 1.94995 13.1398 1.94995 11.3909ZM12 2.35C6.48472 2.35 2.04995 6.36829 2.04995 11.3909C2.04995 13.1258 2.58406 14.7873 3.57099 16.2151C3.57849 16.226 3.58139 16.2394 3.57908 16.2523C3.45013 16.9749 2.9958 18.1005 2.21499 19.5752C1.85061 20.2634 2.1131 21.1167 2.80129 21.4811C3.01739 21.5955 3.25954 21.6518 3.50395 21.6443C5.79138 21.5748 7.5468 21.0256 8.74293 19.9678C8.75597 19.9563 8.77406 19.9524 8.79069 19.9574C9.812 20.2702 10.8921 20.4318 12 20.4318C17.5152 20.4318 21.95 16.4135 21.95 11.3909C21.95 6.36829 17.5152 2.35 12 2.35ZM12 4.16818C7.44972 4.16818 3.86813 7.41605 3.86813 11.3909C3.86813 12.8472 4.34829 14.2381 5.23917 15.4203C5.3748 15.6002 5.44273 15.8222 5.43103 16.0473C5.3836 16.9594 4.95268 18.1892 4.15154 19.7869C5.89542 19.6379 7.10104 19.1368 7.81516 18.3293C8.07707 18.0332 8.49387 17.9281 8.86488 18.0646C9.84483 18.4253 10.9037 18.6136 12 18.6136C16.5502 18.6136 20.1318 15.3658 20.1318 11.3909C20.1318 7.41605 16.5502 4.16818 12 4.16818ZM3.76813 11.3909C3.76813 7.35055 7.40535 4.06818 12 4.06818C16.5946 4.06818 20.2318 7.35055 20.2318 11.3909C20.2318 15.4313 16.5946 18.7136 12 18.7136C10.8922 18.7136 9.82164 18.5234 8.83034 18.1585C8.49801 18.0362 8.12467 18.1303 7.89007 18.3956C7.13941 19.2443 5.87465 19.7534 4.07071 19.8939C4.0527 19.8953 4.03534 19.8869 4.02529 19.8719C4.01524 19.8569 4.01406 19.8376 4.0222 19.8215C4.84818 18.1866 5.28411 16.947 5.33116 16.0421C5.34165 15.8405 5.2808 15.6417 5.15931 15.4804C4.25589 14.2817 3.76813 12.8698 3.76813 11.3909ZM9.16225 8.48574C9.48395 7.23585 10.6174 6.31117 11.9694 6.31117C13.5701 6.31117 14.8679 7.60886 14.8678 9.20966C14.8678 10.488 14.1668 11.1575 13.6844 11.6078C13.2116 12.0491 12.9867 12.2645 12.9188 12.7392C12.8439 13.2636 12.3581 13.628 11.8337 13.553C11.3094 13.4781 10.945 12.9923 11.0199 12.468C11.1856 11.3083 11.8641 10.6795 12.3064 10.2697L12.3075 10.2687L12.3756 10.2055C12.5902 10.0052 12.7327 9.86163 12.8226 9.71523C12.9108 9.5716 12.9497 9.42289 12.9497 9.20965C12.9497 8.66825 12.5108 8.22935 11.9694 8.22935C11.5138 8.22935 11.1287 8.54094 11.0199 8.96387C10.8879 9.47684 10.365 9.78565 9.852 9.65362C9.33903 9.52159 9.03022 8.99872 9.16225 8.48574ZM11.9694 6.41117C10.6642 6.41117 9.56971 7.30381 9.25909 8.51067C9.14083 8.97016 9.41744 9.43852 9.87693 9.55678C10.3364 9.67504 10.8048 9.39843 10.923 8.93894C11.043 8.47272 11.4673 8.12935 11.9694 8.12935C12.566 8.12935 13.0497 8.61302 13.0497 9.20965C13.0497 9.43744 13.0076 9.60515 12.9078 9.76757C12.8098 9.92721 12.6572 10.0794 12.4438 10.2786L12.3756 10.3419C11.9349 10.7503 11.2794 11.3586 11.1189 12.4821C11.0518 12.9518 11.3782 13.3869 11.8479 13.454C12.3176 13.5211 12.7527 13.1948 12.8198 12.7251C12.8933 12.211 13.1458 11.9737 13.6162 11.5347C14.0957 11.0871 14.7678 10.4432 14.7678 9.20966C14.7679 7.66409 13.5149 6.41117 11.9694 6.41117ZM10.859 15.6339C10.859 15.0037 11.3699 14.4929 12 14.4929C12.6301 14.4929 13.1409 15.0037 13.1409 15.6339C13.1409 16.264 12.6301 16.7748 12 16.7748C11.3699 16.7748 10.859 16.264 10.859 15.6339ZM12 14.5929C11.4251 14.5929 10.9591 15.059 10.9591 15.6339C10.9591 16.2087 11.4251 16.6748 12 16.6748C12.5748 16.6748 13.0409 16.2087 13.0409 15.6339C13.0409 15.059 12.5748 14.5929 12 14.5929Z" fill="#222222"/>
</svg>
