<svg width="24" height="24" viewBox="0 0 24 24" fill="none" xmlns="http://www.w3.org/2000/svg">
<path d="M11.3095 4.69044L12 5.34968L12.6905 4.69044L12.9447 4.44778C14.0174 3.47003 15.1833 3 16.4352 3C19.4691 3 22 5.5782 22 8.84858C22 10.4961 21.7096 11.6475 20.8134 12.9301C19.8683 14.2827 18.2331 15.8059 15.4093 18.0976L12.7344 20.1674C12.302 20.502 11.698 20.502 11.2656 20.1674L8.59072 18.0976C5.76687 15.8059 4.13172 14.2827 3.18659 12.9301C2.29039 11.6475 2 10.4961 2 8.84858C2 5.5782 4.53092 3 7.56485 3C8.81671 3 9.98259 3.47003 11.0553 4.44779L11.3095 4.69044Z" stroke="#222222" stroke-width="2" stroke-linecap="round"/>
</svg>
