<svg width="24" height="24" viewBox="0 0 24 24" fill="none" xmlns="http://www.w3.org/2000/svg">
<path fill-rule="evenodd" clip-rule="evenodd" d="M7.8 3C5.14903 3 3 5.14903 3 7.8V16.2C3 18.851 5.14903 21 7.8 21H16.2C18.851 21 21 18.851 21 16.2V7.8C21 5.14903 18.851 3 16.2 3H7.8ZM16.164 7.5C16.164 7.00294 16.5669 6.6 17.064 6.6C17.561 6.6 17.964 7.00294 17.964 7.5C17.964 7.99706 17.561 8.4 17.064 8.4C16.5669 8.4 16.164 7.99706 16.164 7.5ZM11.9875 8.88376C11.3711 8.88376 10.7686 9.06652 10.2562 9.40893C9.74371 9.75135 9.34429 10.238 9.10843 10.8075C8.87257 11.3769 8.81086 12.0034 8.9311 12.6079C9.05134 13.2124 9.34813 13.7677 9.78394 14.2035C10.2198 14.6393 10.775 14.9361 11.3795 15.0563C11.984 15.1766 12.6106 15.1149 13.18 14.879C13.7494 14.6431 14.2361 14.2437 14.5785 13.7313C14.9209 13.2188 15.1037 12.6163 15.1037 12C15.1037 11.5908 15.0231 11.1855 14.8665 10.8075C14.7099 10.4294 14.4803 10.0858 14.191 9.79648C13.9016 9.50711 13.5581 9.27757 13.18 9.12096C12.8019 8.96436 12.3967 8.88376 11.9875 8.88376ZM11.9875 16.8C11.3577 16.8 10.7341 16.6757 10.1525 16.4344C9.57081 16.193 9.04249 15.8392 8.59777 15.3933C8.15306 14.9475 7.80068 14.4182 7.56083 13.8359C7.32098 13.2536 7.19836 12.6297 7.20002 12C7.20002 11.0501 7.48186 10.1216 8.00984 9.33195C8.53783 8.54232 9.28823 7.9271 10.1661 7.56417C11.0439 7.20125 12.0096 7.10693 12.9411 7.29316C13.8725 7.47939 14.7278 7.93779 15.3986 8.61034C16.0694 9.28289 16.5255 10.1393 16.7093 11.0713C16.8931 12.0032 16.7963 12.9687 16.431 13.8456C16.0658 14.7225 15.4486 15.4712 14.6576 15.9972C13.8666 16.5231 12.9373 16.8025 11.9875 16.8Z" fill="#222222"/>
</svg>
