<svg width="24" height="24" viewBox="0 0 24 24" fill="none" xmlns="http://www.w3.org/2000/svg">
<path d="M19.7008 21.3996C18.8444 21.8576 18.0021 21.9999 16.2385 21.9999H13.2572C13.2501 22 13.243 22.0001 13.2359 22.0001C12.6774 22.0001 12.2247 21.5474 12.2247 20.9889C12.2247 20.4304 12.6774 19.9776 13.2359 19.9776C13.2359 19.9776 13.2359 19.9776 13.2359 19.9776L16.2385 19.9774C17.9089 19.9774 18.3403 19.8337 18.747 19.6161C19.1243 19.4143 19.4144 19.1242 19.6163 18.7469C19.8338 18.3401 19.9775 17.9088 19.9775 16.2383L19.9775 7.76142C19.9775 6.091 19.8338 5.65962 19.6163 5.2529C19.4144 4.87554 19.1243 4.58543 18.747 4.38362C18.3403 4.1661 17.9089 4.02235 16.2385 4.02235H13.2572C13.2501 4.0225 13.243 4.02257 13.2359 4.02257C12.6774 4.02257 12.2247 3.56982 12.2247 3.01133C12.2247 2.45284 12.6774 2.0001 13.2359 2.0001C13.2359 2.0001 13.2359 2.0001 13.2359 2.0001L16.2385 1.99988C18.0021 1.99988 18.8444 2.14219 19.7008 2.60017C20.4306 2.99048 21.0094 3.56929 21.3997 4.2991C21.8577 5.15545 22 5.99777 22 7.76142V16.2383C22 18.002 21.8577 18.8443 21.3997 19.7007C21.0094 20.4305 20.4306 21.0093 19.7008 21.3996Z" fill="#222222"/>
<path d="M9.15012 15.7793L11.9181 13.0113H3.01124C2.45275 13.0113 2 12.5586 2 12.0001C2 11.4416 2.45275 10.9889 3.01124 10.9889H11.9183L9.15012 8.22067C8.75521 7.82576 8.75521 7.18548 9.15012 6.79057C9.54503 6.39565 10.1853 6.39565 10.5802 6.79057L15.0746 11.2849C15.4695 11.6799 15.4695 12.3201 15.0746 12.7151L10.5802 17.2094C10.1853 17.6043 9.54503 17.6043 9.15012 17.2094C8.75521 16.8145 8.75521 16.1742 9.15012 15.7793Z" fill="#222222"/>
</svg>
