<svg width="24" height="24" viewBox="0 0 24 24" fill="none" xmlns="http://www.w3.org/2000/svg">
<path d="M12.7858 23.25C10.9586 23.25 9.34335 22.9992 7.94009 22.4976C6.53682 22.002 5.35748 21.2705 4.40207 20.3031C3.44666 19.3358 2.72412 18.1505 2.23447 16.7472C1.74482 15.3439 1.5 13.7377 1.5 11.9283C1.5 10.1787 1.74781 8.61425 2.24343 7.23487C2.74502 5.85549 3.47054 4.68511 4.41998 3.72373C5.3754 2.75637 6.53384 2.01891 7.8953 1.51135C9.26274 1.00378 10.8093 0.75 12.535 0.75C14.213 0.75 15.6819 1.02468 16.9419 1.57404C18.2078 2.11744 19.2647 2.8549 20.1127 3.78643C20.9666 4.71198 21.6055 5.75398 22.0295 6.91242C22.4594 8.07086 22.6744 9.26513 22.6744 10.4952C22.6744 11.3611 22.6326 12.2389 22.549 13.1286C22.4654 14.0183 22.2892 14.8364 22.0205 15.5828C21.7518 16.3232 21.3368 16.9204 20.7755 17.3742C20.2201 17.828 19.4678 18.0549 18.5183 18.0549C18.1003 18.0549 17.6405 17.9893 17.1389 17.8579C16.6373 17.7265 16.1925 17.5086 15.8043 17.204C15.4162 16.8995 15.1863 16.4904 15.1146 15.9769H15.0072C14.8639 16.3232 14.6429 16.6517 14.3443 16.9622C14.0518 17.2727 13.6666 17.5205 13.1889 17.7056C12.7172 17.8907 12.1409 17.9713 11.4602 17.9475C10.6839 17.9176 10.0002 17.7444 9.40904 17.4279C8.81787 17.1055 8.32225 16.6696 7.92217 16.1202C7.52807 15.5649 7.2295 14.923 7.02647 14.1945C6.82942 13.46 6.73089 12.6688 6.73089 11.8209C6.73089 11.0147 6.85032 10.2773 7.08917 9.60848C7.32802 8.93969 7.65943 8.3545 8.0834 7.85291C8.51334 7.35131 9.01493 6.95123 9.58818 6.65267C10.1674 6.34813 10.7914 6.16003 11.4602 6.08838C12.0573 6.02866 12.6007 6.05553 13.0904 6.16899C13.58 6.27647 13.9831 6.44068 14.2996 6.66162C14.616 6.87659 14.8161 7.11545 14.8997 7.37819H15.0072V6.375H16.9061V14.4721C16.9061 14.9737 17.0464 15.4156 17.327 15.7978C17.6077 16.1799 18.0167 16.371 18.5541 16.371C19.1632 16.371 19.629 16.162 19.9514 15.744C20.2799 15.326 20.5038 14.6811 20.6232 13.8093C20.7486 12.9375 20.8113 11.8209 20.8113 10.4594C20.8113 9.65924 20.7008 8.87102 20.4799 8.09475C20.2649 7.3125 19.9365 6.58101 19.4946 5.90028C19.0587 5.21955 18.5064 4.61943 17.8376 4.09992C17.1688 3.58041 16.3836 3.17436 15.4819 2.88177C14.5862 2.5832 13.5681 2.43392 12.4275 2.43392C11.0243 2.43392 9.76732 2.65187 8.65665 3.08778C7.55195 3.51772 6.61146 4.14769 5.83519 4.97771C5.06489 5.80175 4.47671 6.80494 4.07066 7.98726C3.67058 9.16362 3.47054 10.5012 3.47054 12C3.47054 13.5227 3.67058 14.8752 4.07066 16.0575C4.47671 17.2398 5.07385 18.2371 5.86206 19.0492C6.65625 19.8613 7.63853 20.4763 8.80892 20.8943C9.9793 21.3183 11.3288 21.5303 12.8575 21.5303C13.5143 21.5303 14.1622 21.4676 14.8012 21.3422C15.4401 21.2168 16.0044 21.0794 16.494 20.9301C16.9837 20.7809 17.336 20.6704 17.551 20.5987L18.0525 22.2468C17.6823 22.4021 17.1986 22.5573 16.6015 22.7126C16.0103 22.8678 15.3774 22.9962 14.7026 23.0977C14.0338 23.1992 13.3949 23.25 12.7858 23.25ZM11.7468 16.1202C12.547 16.1202 13.1949 15.959 13.6905 15.6365C14.1861 15.3141 14.5474 14.8274 14.7743 14.1766C15.0012 13.5257 15.1146 12.7046 15.1146 11.7134C15.1146 10.7102 14.9893 9.92795 14.7385 9.36664C14.4877 8.80534 14.1174 8.41123 13.6278 8.18432C13.1381 7.95741 12.535 7.84395 11.8185 7.84395C11.1377 7.84395 10.5555 8.02309 10.0719 8.38137C9.59415 8.73368 9.22691 9.20541 8.97014 9.79658C8.71935 10.3818 8.59395 11.0207 8.59395 11.7134C8.59395 12.4777 8.69546 13.1973 8.89849 13.872C9.10151 14.5408 9.43292 15.0842 9.89271 15.5022C10.3525 15.9142 10.9705 16.1202 11.7468 16.1202Z" fill="#222222"/>
</svg>
