<svg width="24" height="24" viewBox="0 0 24 24" fill="none" xmlns="http://www.w3.org/2000/svg">
<g clip-path="url(#clip0_427_6394)">
<path d="M3.80005 10.4468L3.80005 10.4473C3.80005 11.9501 4.34591 13.557 5.1919 15.1278C6.03313 16.6897 7.13435 18.1484 8.15747 19.3362L3.80005 10.4468ZM3.80005 10.4468C3.7984 7.24973 5.77979 4.34598 8.85265 3.10868C11.9295 1.8698 15.4673 2.55892 17.811 4.83912L17.8129 4.84098C19.3508 6.32923 20.2068 8.34743 20.2 10.4441V10.4473C20.2 11.9501 19.6541 13.557 18.8081 15.1278C17.9669 16.6897 16.8657 18.1484 15.8425 19.3362C15.284 19.9841 14.7031 20.6131 14.1007 21.222C12.9365 22.3988 11.0635 22.3988 9.89931 21.222L9.1884 21.9253M3.80005 10.4468L9.1884 21.9253M9.1884 21.9253L9.89931 21.222C9.29703 20.6132 8.71614 19.9843 8.1577 19.3365L9.1884 21.9253Z" stroke="#222222" stroke-width="2"/>
<circle cx="12" cy="10.7" r="2.45" stroke="#222222" stroke-width="2"/>
</g>
<defs>
<clipPath id="clip0_427_6394">
<rect width="24" height="24" fill="white"/>
</clipPath>
</defs>
</svg>
