<svg width="24" height="24" viewBox="0 0 24 24" fill="none" xmlns="http://www.w3.org/2000/svg">
<path d="M21.4614 19.6837L21.437 19.7081L21.4143 19.7342L20.6085 20.662C19.0847 22.096 16.9705 22.3358 14.5306 21.5838C12.0651 20.8238 9.42933 19.0836 7.19471 16.8549C4.96027 14.6263 3.20922 11.9913 2.43412 9.5227C1.66689 7.07914 1.89015 4.96123 3.29716 3.43518L4.3133 2.55158L4.33363 2.53391L4.35298 2.51516C4.69829 2.18058 5.16151 1.99553 5.6423 2.00008C6.10715 2.00449 6.55223 2.1858 6.88754 2.50607L6.92491 2.55374C6.97289 2.61524 7.04066 2.7026 7.12212 2.80787C7.28482 3.01812 7.49944 3.29631 7.71356 3.57416C7.92759 3.85189 8.14077 4.12881 8.30047 4.33633L8.49327 4.58691L8.54721 4.65704L8.5614 4.67549L8.56504 4.68022L8.56595 4.68141L8.56618 4.68171L8.56624 4.68178L9.35897 4.07221L8.56626 4.68181L8.59842 4.72364L8.63481 4.76185C8.96227 5.1057 9.14467 5.56248 9.14412 6.03731C9.14357 6.51213 8.9601 6.96849 8.63184 7.31158L8.60096 7.34384L8.57309 7.37873L7.50801 8.71192L7.14045 9.17201L7.36452 9.71659C8.00305 11.2685 8.94196 12.6789 10.1273 13.8668C11.3126 15.0547 12.721 15.9967 14.2716 16.6386L14.8158 16.8639L15.2767 16.4971L16.6209 15.4274L16.6569 15.3988L16.6901 15.367C17.0331 15.0384 17.4895 14.8546 17.9644 14.8539C18.4394 14.8531 18.8964 15.0354 19.2404 15.3629L19.2784 15.399L19.3199 15.4309L19.9299 14.6385L19.3199 15.4309L19.32 15.431L19.3203 15.4312L19.3215 15.4321L19.3262 15.4358L19.3447 15.45L19.4148 15.504L19.6654 15.697C19.8729 15.8569 20.1499 16.0703 20.4277 16.2846C20.7056 16.499 20.984 16.7139 21.1944 16.8768C21.2998 16.9584 21.3874 17.0263 21.4491 17.0745L21.4959 17.1111C21.8195 17.4533 22.0005 17.9069 22.0007 18.3792C22.0008 18.8683 21.8068 19.3374 21.4614 19.6837Z" stroke="#222222" stroke-width="2"/>
</svg>
