<svg width="24" height="24" viewBox="0 0 24 24" fill="none" xmlns="http://www.w3.org/2000/svg">
<path d="M15.0525 8.21922L15.2867 8.76168L15.8748 8.81836L21.1321 9.32504C21.7266 9.38234 21.9274 9.66402 21.9778 9.82595C22.0278 9.98658 22.0233 10.3301 21.5649 10.7127L17.449 14.149L16.9561 14.5605L17.1252 15.18L18.6532 20.778C18.8216 21.3949 18.6045 21.6553 18.5052 21.7257C18.4104 21.793 18.1028 21.9134 17.5822 21.5441L12.5811 17.9954L12.0024 17.5848L11.4237 17.9954L6.42258 21.5441C5.90657 21.9102 5.59792 21.792 5.50079 21.7233C5.40055 21.6524 5.18376 21.3932 5.35167 20.778L6.87965 15.18L7.04872 14.5605L6.55582 14.149L2.43989 10.7127C1.97565 10.3251 1.97298 9.98108 2.02175 9.82427C2.0709 9.66622 2.27031 9.38308 2.87243 9.32504L8.12885 8.81835L8.71682 8.76168L8.95097 8.21937L11.2668 2.85576C11.5035 2.30757 11.8315 2.19992 12.0024 2.19995C12.1734 2.19998 12.5013 2.30793 12.7378 2.85579L15.0525 8.21922Z" stroke="#222222" stroke-width="2"/>
</svg>
