<svg width="24" height="24" viewBox="0 0 24 24" fill="none" xmlns="http://www.w3.org/2000/svg">
<path d="M7.99816 11.7156C8.53051 11.7156 8.96954 11.2985 8.99684 10.7669L9.37435 3.41624C9.43889 2.89334 9.79714 2.45418 10.2944 2.28418C11.4007 1.90593 12.6043 1.90486 13.7116 2.28345C14.2144 2.45537 14.573 2.90169 14.6324 3.42935L14.939 10.7574C14.9614 11.2929 15.4021 11.7156 15.9382 11.7156H18.2347H18.2349L18.2938 11.7156H18.2939C18.6267 11.7155 18.9368 11.7162 19.1814 11.738C19.4131 11.7588 19.809 11.8102 20.1369 12.0827C20.5209 12.4018 20.7327 12.883 20.708 13.382C20.687 13.8086 20.4563 14.135 20.3147 14.3194C20.1652 14.514 19.9557 14.7425 19.7305 14.9869L19.7304 14.9869L19.6904 15.0303L19.6903 15.0304L14.9421 20.1851L14.942 20.1851C14.5744 20.5843 14.2586 20.9261 13.9779 21.1837C13.6777 21.459 13.3498 21.7036 12.9412 21.8438C12.3338 22.0521 11.6743 22.0521 11.067 21.8438L10.7426 22.7897L11.067 21.8438C10.6583 21.7036 10.3304 21.459 10.0303 21.1837C9.7495 20.9261 9.43373 20.5843 9.0661 20.1851L9.06603 20.1851L4.31786 15.0304L4.31771 15.0303L4.27776 14.9869L4.27769 14.9869C4.05243 14.7425 3.84297 14.514 3.69344 14.3194C3.55185 14.135 3.32117 13.8086 3.30013 13.382C3.27549 12.883 3.48729 12.4018 3.87121 12.0827C4.19913 11.8102 4.59502 11.7588 4.82673 11.738C5.07138 11.7162 5.38146 11.7155 5.71421 11.7156H5.71432L5.77325 11.7156H5.77347H7.99816Z" stroke="#222222" stroke-width="2" stroke-linejoin="round"/>
</svg>
