<svg width="24" height="24" viewBox="0 0 24 24" fill="none" xmlns="http://www.w3.org/2000/svg">
<path d="M2.6003 19.7008C2.14232 18.8444 2 18.0021 2 16.2385V15.2572C1.99986 15.2501 1.99978 15.243 1.99978 15.2359C1.99978 14.6774 2.45253 14.2247 3.01102 14.2247C3.56951 14.2247 4.02225 14.6774 4.02225 15.2359L4.02247 16.2385C4.02247 17.9089 4.16622 18.3403 4.38374 18.747C4.58555 19.1243 4.87566 19.4144 5.25302 19.6163C5.65974 19.8338 6.09113 19.9775 7.76154 19.9775L16.2385 19.9775C17.9089 19.9775 18.3403 19.8338 18.747 19.6163C19.1243 19.4144 19.4144 19.1243 19.6163 18.747C19.8338 18.3403 19.9775 17.9089 19.9775 16.2385V15.2572C19.9774 15.2501 19.9773 15.243 19.9773 15.2359C19.9773 14.6774 20.4301 14.2247 20.9885 14.2247C21.547 14.2247 21.9998 14.6774 21.9998 15.2359L22 16.2385C22 18.0021 21.8577 18.8444 21.3997 19.7008C21.0094 20.4306 20.4306 21.0094 19.7008 21.3997C18.8444 21.8577 18.0021 22 16.2385 22H7.76154C5.99789 22 5.15557 21.8577 4.29922 21.3997C3.56941 21.0094 2.99061 20.4306 2.6003 19.7008Z" fill="#222222"/>
<path d="M8.22055 11.1501L10.9885 13.9181L10.9885 3.01124C10.9885 2.45275 11.4413 2 11.9998 2C12.5583 2 13.011 2.45275 13.011 3.01124L13.011 13.9183L15.7792 11.1501C16.1741 10.7552 16.8144 10.7552 17.2093 11.1501C17.6042 11.545 17.6042 12.1853 17.2093 12.5802L12.7149 17.0746C12.32 17.4695 11.6797 17.4695 11.2848 17.0746L6.79044 12.5802C6.39553 12.1853 6.39553 11.545 6.79044 11.1501C7.18536 10.7552 7.82563 10.7552 8.22055 11.1501Z" fill="#222222"/>
</svg>
