<svg width="24" height="24" viewBox="0 0 24 24" fill="none" xmlns="http://www.w3.org/2000/svg">
<path d="M16.7671 13.5675C20.6335 13.5675 24 14.9398 24 18.03C24 19.659 23.3252 20.381 21.9467 20.381L16.0809 20.3811C15.5115 20.3811 15.1092 19.8035 15.2216 19.2453C15.3005 18.8537 15.6292 18.4942 16.0287 18.4943C18.397 18.4946 22.0901 18.4963 22.0901 18.4963C22.0901 18.4963 22.1132 18.1852 22.1132 18.03C22.1132 16.4448 19.6835 15.4543 16.7671 15.4543C16.2723 15.4543 15.7915 15.4828 15.3341 15.5379C14.9828 15.5803 14.6426 15.4132 14.4435 15.1206C14.0756 14.5799 14.2694 13.762 14.9182 13.6797C15.5125 13.6044 16.1331 13.5675 16.7671 13.5675ZM7.33296 13.5675C11.1993 13.5675 14.5658 14.9398 14.5658 18.03C14.5658 19.659 13.8911 20.381 12.5125 20.381H2.15342C0.77486 20.381 0.100098 19.659 0.100098 18.03C0.100098 14.9398 3.46658 13.5675 7.33296 13.5675ZM7.33296 15.4543C4.41661 15.4543 1.98693 16.4448 1.98693 18.03C1.98693 18.186 2.0079 18.4963 2.0079 18.4963H12.6559C12.6559 18.4963 12.679 18.1852 12.679 18.03C12.679 16.4448 10.2493 15.4543 7.33296 15.4543ZM16.7671 3.81885C19.1704 3.81885 21.1173 5.76577 21.1173 8.16905C21.1173 10.5723 19.1704 12.5192 16.7671 12.5192C14.3639 12.5192 12.4169 10.5723 12.4169 8.16905C12.4169 5.76577 14.3639 3.81885 16.7671 3.81885ZM7.33296 3.81885C9.73625 3.81885 11.6832 5.76577 11.6832 8.16905C11.6832 10.5723 9.73625 12.5192 7.33296 12.5192C4.92968 12.5192 2.98276 10.5723 2.98276 8.16905C2.98276 5.76577 4.92968 3.81885 7.33296 3.81885ZM16.7671 5.70568C15.4059 5.70568 14.3038 6.80784 14.3038 8.16905C14.3038 9.53026 15.4059 10.6324 16.7671 10.6324C18.1283 10.6324 19.2305 9.53026 19.2305 8.16905C19.2305 6.80784 18.1283 5.70568 16.7671 5.70568ZM7.33296 5.70568C5.97175 5.70568 4.8696 6.80784 4.8696 8.16905C4.8696 9.53026 5.97175 10.6324 7.33296 10.6324C8.69418 10.6324 9.79633 9.53026 9.79633 8.16905C9.79633 6.80784 8.69418 5.70568 7.33296 5.70568Z" fill="#222222"/>
</svg>
