<svg width="24" height="24" viewBox="0 0 24 24" fill="none" xmlns="http://www.w3.org/2000/svg">
<path d="M7.41517 8.01477C7.6595 8.14968 7.9491 8.17634 8.21395 8.0883C8.47881 8.00026 8.69482 7.80554 8.80977 7.55121L10.4001 4.0326C11.0224 2.6558 12.9776 2.6558 13.5999 4.03261L15.1902 7.55121C15.3052 7.80554 15.5212 8.00026 15.786 8.0883C16.0509 8.17633 16.3405 8.14968 16.5848 8.01477L19.3905 6.46561C20.7498 5.71509 22.3427 6.96887 21.9325 8.46644C21.9296 8.47689 21.927 8.48738 21.9244 8.49792L20.1851 15.7673C20.1658 15.8478 20.1566 15.9304 20.1577 16.0131L20.1857 18.1486V18.1774V18.8C20.1857 19.3766 20.1849 19.7488 20.1618 20.0322C20.1396 20.3038 20.1019 20.4045 20.0767 20.454C19.9808 20.6422 19.8279 20.7951 19.6397 20.891C19.5903 20.9162 19.4895 20.9539 19.2179 20.9761C18.9345 20.9992 18.5623 21 17.9857 21H17.3631H17.3277H6.67227H6.01893C5.44614 21 5.07649 20.9992 4.79505 20.9763C4.52535 20.9543 4.4251 20.917 4.37568 20.892C4.1882 20.797 4.03543 20.6453 3.93905 20.4586C3.91364 20.4093 3.87562 20.3094 3.85167 20.0398C3.82668 19.7586 3.82319 19.3889 3.81899 18.8162L3.81427 18.1774V18.1737L3.81427 18.1486L3.84226 16.0131C3.84335 15.9304 3.83415 15.8478 3.8149 15.7673L2.07557 8.49792C2.07305 8.48738 2.07036 8.47689 2.06749 8.46644C1.65729 6.96887 3.25019 5.71509 4.60948 6.46562L7.41517 8.01477Z" stroke="#222222" stroke-width="2" stroke-linecap="round" stroke-linejoin="round"/>
<line x1="4" y1="16" x2="20" y2="16" stroke="#222222" stroke-width="2"/>
</svg>
