<svg width="25" height="24" viewBox="0 0 25 24" fill="none" xmlns="http://www.w3.org/2000/svg">
<path fill-rule="evenodd" clip-rule="evenodd" d="M13.9839 3.43253C15.8939 1.52249 18.9907 1.52249 20.9007 3.43253C22.8108 5.34256 22.8108 8.43935 20.9007 10.3494L19.7101 11.54C19.3194 11.9307 18.686 11.9307 18.2953 11.54C17.9046 11.1493 17.9046 10.5159 18.2953 10.1252L19.4859 8.93457C20.6146 7.80591 20.6146 5.976 19.4859 4.84734C18.3573 3.71868 16.5273 3.71868 15.3987 4.84734L11.4686 8.77737C10.34 9.90603 10.34 11.7359 11.4686 12.8646C11.8593 13.2553 11.8593 13.8887 11.4686 14.2794C11.078 14.6701 10.4445 14.6701 10.0538 14.2794C8.1438 12.3694 8.1438 9.2726 10.0538 7.36256L13.9839 3.43253ZM13.1979 9.72059C13.5885 9.3299 14.222 9.3299 14.6127 9.72059C16.5227 11.6306 16.5227 14.7274 14.6127 16.6374L10.6826 20.5675C8.7726 22.4775 5.67582 22.4775 3.76578 20.5675C1.85574 18.6574 1.85574 15.5607 3.76578 13.6506L5.01223 12.4042C5.40292 12.0135 6.03635 12.0135 6.42704 12.4042C6.81773 12.7949 6.81773 13.4283 6.42704 13.819L5.18059 15.0654C4.05193 16.1941 4.05193 18.024 5.18059 19.1527C6.30925 20.2813 8.13917 20.2813 9.26783 19.1527L13.1979 15.2226C14.3265 14.094 14.3265 12.2641 13.1979 11.1354C12.8072 10.7447 12.8072 10.1113 13.1979 9.72059Z" fill="#222222"/>
</svg>
