<svg width="24" height="24" viewBox="0 0 24 24" fill="none" xmlns="http://www.w3.org/2000/svg">
<g clip-path="url(#clip0_1159_42966)">
<g filter="url(#filter0_d_1159_42966)">
<path d="M2.62427 21.6708L3.96647 16.7796C3.13727 15.3448 2.70172 13.7171 2.70373 12.0607C2.70591 6.85617 6.94942 2.62207 12.1641 2.62207C14.6946 2.62335 17.0697 3.60623 18.856 5.39039C20.6423 7.17456 21.6252 9.54609 21.6243 12.0683C21.622 17.2724 17.3778 21.5073 12.1639 21.5073H12.1598C10.5767 21.5067 9.02103 21.1102 7.63923 20.3582L2.62427 21.6708Z" fill="white"/>
</g>
<path d="M12.167 3.98232C7.82979 3.98232 4.30258 7.5015 4.30103 11.8271C4.2989 13.3042 4.71564 14.7517 5.50309 16.0023L5.69016 16.2991L4.8957 19.194L7.87171 18.4152L8.15907 18.5851C9.36601 19.3 10.7499 19.678 12.1611 19.6788H12.1641C16.498 19.6788 20.0252 16.1593 20.0269 11.8334C20.0301 10.8023 19.8285 9.78088 19.4335 8.82815C19.0386 7.87542 18.4582 7.01035 17.726 6.28301C16.9979 5.5517 16.1316 4.9718 15.1774 4.57688C14.2232 4.18197 13.2 3.97988 12.167 3.98232Z" fill="url(#paint0_linear_1159_42966)"/>
<path fill-rule="evenodd" clip-rule="evenodd" d="M9.79961 7.88038C9.62244 7.48756 9.436 7.4796 9.2677 7.4728L8.8146 7.46729C8.65696 7.46729 8.40084 7.52632 8.18432 7.76244C7.9678 7.99857 7.35693 8.56925 7.35693 9.72999C7.35693 10.8907 8.20399 12.0123 8.32202 12.1699C8.44005 12.3275 9.95725 14.7854 12.3599 15.7311C14.3566 16.517 14.7629 16.3606 15.1964 16.3214C15.63 16.2821 16.595 15.7507 16.7918 15.1998C16.9887 14.6489 16.9888 14.1769 16.9298 14.0782C16.8708 13.9795 16.7131 13.9208 16.4765 13.8028C16.24 13.6847 15.078 13.114 14.8614 13.0352C14.6447 12.9565 14.4872 12.9173 14.3295 13.1534C14.1717 13.3896 13.7192 13.9207 13.5813 14.0782C13.4433 14.2356 13.3056 14.2554 13.069 14.1375C12.8325 14.0195 12.0713 13.7703 11.1682 12.9666C10.4655 12.3412 9.99119 11.569 9.8531 11.333C9.71501 11.097 9.83844 10.9691 9.95699 10.8516C10.0631 10.7458 10.1933 10.5761 10.3117 10.4384C10.4301 10.3007 10.4691 10.2022 10.5478 10.045C10.6265 9.88784 10.5873 9.74975 10.5281 9.63182C10.469 9.51388 10.0097 8.34698 9.79961 7.88038Z" fill="white"/>
</g>
<defs>
<filter id="filter0_d_1159_42966" x="-0.191795" y="0.744695" width="24.6321" height="24.6808" filterUnits="userSpaceOnUse" color-interpolation-filters="sRGB">
<feFlood flood-opacity="0" result="BackgroundImageFix"/>
<feColorMatrix in="SourceAlpha" type="matrix" values="0 0 0 0 0 0 0 0 0 0 0 0 0 0 0 0 0 0 127 0" result="hardAlpha"/>
<feOffset dy="0.938688"/>
<feGaussianBlur stdDeviation="1.40803"/>
<feComposite in2="hardAlpha" operator="out"/>
<feColorMatrix type="matrix" values="0 0 0 0 0 0 0 0 0 0 0 0 0 0 0 0 0 0 0.11 0"/>
<feBlend mode="normal" in2="BackgroundImageFix" result="effect1_dropShadow_1159_42966"/>
<feBlend mode="normal" in="SourceGraphic" in2="effect1_dropShadow_1159_42966" result="shape"/>
</filter>
<linearGradient id="paint0_linear_1159_42966" x1="12.0039" y1="4.92426" x2="12.0833" y2="18.3379" gradientUnits="userSpaceOnUse">
<stop stop-color="#57D163"/>
<stop offset="1" stop-color="#23B33A"/>
</linearGradient>
<clipPath id="clip0_1159_42966">
<rect width="24" height="24" fill="white"/>
</clipPath>
</defs>
</svg>
