<svg width="24" height="24" viewBox="0 0 24 24" fill="none" xmlns="http://www.w3.org/2000/svg">
<path fill-rule="evenodd" clip-rule="evenodd" d="M19.2857 4.19692C17.2739 2.13638 14.5982 1.00105 11.7472 1C5.87256 1 1.09147 5.89 1.08943 11.9007C1.08841 13.8222 1.57949 15.6977 2.5121 17.3505L1 23L6.64981 21.4841C8.20636 22.3529 9.95915 22.8102 11.7426 22.8108H11.7472C17.6208 22.8108 22.4025 17.9203 22.4045 11.9096C22.4055 8.99651 21.2981 6.25799 19.2857 4.19744V4.19692ZM11.7472 20.9698H11.7436C10.1543 20.9693 8.59527 20.5323 7.23495 19.7069L6.91146 19.5104L3.55867 20.41L4.45346 17.0661L4.24292 16.7232C3.3563 15.2806 2.8877 13.6131 2.88872 11.9012C2.89077 6.90563 6.86444 2.841 11.7508 2.841C14.1168 2.84204 16.3408 3.78555 18.0133 5.49848C19.6859 7.2109 20.6062 9.48786 20.6052 11.9085C20.6031 16.9047 16.6295 20.9693 11.7472 20.9693V20.9698ZM16.606 14.1839C16.3397 14.0475 15.0305 13.3888 14.7862 13.2979C14.542 13.2069 14.3647 13.1615 14.1873 13.4343C14.01 13.7072 13.4995 14.3209 13.3442 14.5022C13.1888 14.6841 13.0334 14.7066 12.7672 14.5702C12.501 14.4337 11.643 14.1463 10.6255 13.2184C9.83399 12.496 9.29942 11.6043 9.14412 11.3314C8.98875 11.0586 9.12776 10.9112 9.26059 10.7758C9.38016 10.6535 9.52684 10.4575 9.6602 10.2986C9.79362 10.1396 9.83756 10.0257 9.92645 9.84431C10.0154 9.66241 9.97092 9.50355 9.90451 9.36707C9.83804 9.23066 9.3056 7.88987 9.08329 7.3447C8.86711 6.81363 8.64741 6.88577 8.48438 6.87688C8.32902 6.86904 8.15172 6.86747 7.97388 6.86747C7.79605 6.86747 7.5078 6.93543 7.26355 7.20828C7.0193 7.48111 6.33145 8.14026 6.33145 9.4805C6.33145 10.8207 7.28555 12.1166 7.41891 12.2985C7.55227 12.4804 9.29686 15.2314 11.968 16.4117C12.6032 16.6924 13.0994 16.8602 13.4862 16.9857C14.124 17.1932 14.7045 17.1639 15.1634 17.0939C15.6749 17.0155 16.7388 16.4347 16.9606 15.7986C17.1824 15.1624 17.1824 14.6167 17.116 14.5033C17.0496 14.3898 16.8717 14.3214 16.6055 14.1849L16.606 14.1839Z" fill="#25D366"/>
</svg>
